<mxfile host="app.diagrams.net" modified="2022-08-02T09:07:10.869Z" agent="5.0 (Windows NT 10.0; Win64; x64) AppleWebKit/537.36 (KHTML, like Gecko) Chrome/103.0.0.0 Safari/537.36" etag="K7c-0-idEQVRAXI7R25l" version="20.2.2" type="github">
  <diagram id="TUg0mAsogZZRu2QTR53R" name="第 1 页">
    <mxGraphModel dx="1117" dy="637" grid="1" gridSize="10" guides="1" tooltips="1" connect="1" arrows="1" fold="1" page="1" pageScale="1" pageWidth="827" pageHeight="1169" math="0" shadow="0">
      <root>
        <mxCell id="0" />
        <mxCell id="1" parent="0" />
        <mxCell id="xqInLOvfpjBzlCC8Navy-31" value="" style="rounded=0;whiteSpace=wrap;html=1;fontSize=13;fillColor=#dae8fc;strokeColor=#6c8ebf;" vertex="1" parent="1">
          <mxGeometry x="40" y="230" width="1130" height="495" as="geometry" />
        </mxCell>
        <mxCell id="xqInLOvfpjBzlCC8Navy-1" value="②component_access_token" style="rounded=0;whiteSpace=wrap;html=1;" vertex="1" parent="1">
          <mxGeometry x="525" y="340" width="160" height="40" as="geometry" />
        </mxCell>
        <mxCell id="xqInLOvfpjBzlCC8Navy-2" value="component_secret" style="rounded=0;whiteSpace=wrap;html=1;" vertex="1" parent="1">
          <mxGeometry x="205" y="340" width="160" height="40" as="geometry" />
        </mxCell>
        <mxCell id="xqInLOvfpjBzlCC8Navy-3" value="component_appid" style="rounded=0;whiteSpace=wrap;html=1;" vertex="1" parent="1">
          <mxGeometry x="205" y="410" width="160" height="40" as="geometry" />
        </mxCell>
        <mxCell id="xqInLOvfpjBzlCC8Navy-5" value="①component_verify_ticket" style="rounded=0;whiteSpace=wrap;html=1;" vertex="1" parent="1">
          <mxGeometry x="205" y="270" width="160" height="40" as="geometry" />
        </mxCell>
        <mxCell id="xqInLOvfpjBzlCC8Navy-8" value="微信回调，每10min一次" style="text;html=1;strokeColor=none;fillColor=none;align=center;verticalAlign=middle;whiteSpace=wrap;rounded=0;" vertex="1" parent="1">
          <mxGeometry x="85" y="250" width="90" height="30" as="geometry" />
        </mxCell>
        <mxCell id="xqInLOvfpjBzlCC8Navy-9" value="" style="shape=flexArrow;endArrow=classic;html=1;rounded=0;" edge="1" parent="1">
          <mxGeometry width="50" height="50" relative="1" as="geometry">
            <mxPoint x="419" y="359.28999999999996" as="sourcePoint" />
            <mxPoint x="479" y="359.28999999999996" as="targetPoint" />
          </mxGeometry>
        </mxCell>
        <mxCell id="xqInLOvfpjBzlCC8Navy-10" value="" style="shape=curlyBracket;whiteSpace=wrap;html=1;rounded=1;flipH=1;" vertex="1" parent="1">
          <mxGeometry x="365" y="280" width="20" height="160" as="geometry" />
        </mxCell>
        <mxCell id="xqInLOvfpjBzlCC8Navy-11" value="③pre_auth_code" style="rounded=0;whiteSpace=wrap;html=1;" vertex="1" parent="1">
          <mxGeometry x="835" y="340" width="160" height="40" as="geometry" />
        </mxCell>
        <mxCell id="xqInLOvfpjBzlCC8Navy-13" value="调用微信接口获得" style="text;html=1;strokeColor=none;fillColor=none;align=center;verticalAlign=middle;whiteSpace=wrap;rounded=0;" vertex="1" parent="1">
          <mxGeometry x="695" y="310" width="130" height="30" as="geometry" />
        </mxCell>
        <mxCell id="xqInLOvfpjBzlCC8Navy-14" value="第三方平台调用微信接口统一凭证" style="text;html=1;strokeColor=none;fillColor=none;align=center;verticalAlign=middle;whiteSpace=wrap;rounded=0;" vertex="1" parent="1">
          <mxGeometry x="525" y="300" width="130" height="30" as="geometry" />
        </mxCell>
        <mxCell id="xqInLOvfpjBzlCC8Navy-15" value="" style="shape=flexArrow;endArrow=classic;html=1;rounded=0;" edge="1" parent="1">
          <mxGeometry width="50" height="50" relative="1" as="geometry">
            <mxPoint x="720.0000000000002" y="359.44" as="sourcePoint" />
            <mxPoint x="780.0000000000002" y="359.44" as="targetPoint" />
          </mxGeometry>
        </mxCell>
        <mxCell id="xqInLOvfpjBzlCC8Navy-16" value="" style="shape=flexArrow;endArrow=classic;html=1;rounded=0;" edge="1" parent="1">
          <mxGeometry width="50" height="50" relative="1" as="geometry">
            <mxPoint x="125" y="289.29" as="sourcePoint" />
            <mxPoint x="185" y="289.29" as="targetPoint" />
          </mxGeometry>
        </mxCell>
        <mxCell id="xqInLOvfpjBzlCC8Navy-17" value="调用微信接口获得" style="text;html=1;strokeColor=none;fillColor=none;align=center;verticalAlign=middle;whiteSpace=wrap;rounded=0;" vertex="1" parent="1">
          <mxGeometry x="375" y="310" width="130" height="30" as="geometry" />
        </mxCell>
        <mxCell id="xqInLOvfpjBzlCC8Navy-18" value="" style="shape=flexArrow;endArrow=classic;html=1;rounded=0;" edge="1" parent="1">
          <mxGeometry width="50" height="50" relative="1" as="geometry">
            <mxPoint x="915" y="470" as="sourcePoint" />
            <mxPoint x="915" y="560" as="targetPoint" />
          </mxGeometry>
        </mxCell>
        <mxCell id="xqInLOvfpjBzlCC8Navy-19" value="④按照微信规则生成授权二维码或者授权链接" style="text;html=1;strokeColor=none;fillColor=none;align=center;verticalAlign=middle;whiteSpace=wrap;rounded=0;" vertex="1" parent="1">
          <mxGeometry x="955" y="490" width="130" height="30" as="geometry" />
        </mxCell>
        <mxCell id="xqInLOvfpjBzlCC8Navy-20" value="商家进行授权" style="ellipse;whiteSpace=wrap;html=1;" vertex="1" parent="1">
          <mxGeometry x="865" y="630" width="120" height="80" as="geometry" />
        </mxCell>
        <mxCell id="xqInLOvfpjBzlCC8Navy-23" value="" style="shape=flexArrow;endArrow=classic;html=1;rounded=0;" edge="1" parent="1">
          <mxGeometry width="50" height="50" relative="1" as="geometry">
            <mxPoint x="785" y="669.44" as="sourcePoint" />
            <mxPoint x="715" y="669.44" as="targetPoint" />
          </mxGeometry>
        </mxCell>
        <mxCell id="xqInLOvfpjBzlCC8Navy-24" value="⑤授权成功，回调" style="text;html=1;strokeColor=none;fillColor=none;align=center;verticalAlign=middle;whiteSpace=wrap;rounded=0;" vertex="1" parent="1">
          <mxGeometry x="695" y="610" width="130" height="30" as="geometry" />
        </mxCell>
        <mxCell id="xqInLOvfpjBzlCC8Navy-25" value="&lt;span style=&quot;color: rgb(53, 53, 53); font-family: -apple-system, BlinkMacSystemFont, &amp;quot;SF UI Text&amp;quot;, &amp;quot;Helvetica Neue&amp;quot;, &amp;quot;PingFang SC&amp;quot;, &amp;quot;Hiragino Sans GB&amp;quot;, &amp;quot;Microsoft YaHei UI&amp;quot;, &amp;quot;Microsoft YaHei&amp;quot;, Arial, sans-serif; text-align: left;&quot;&gt;&lt;font style=&quot;font-size: 12px;&quot;&gt;AuthorizationCode&lt;/font&gt;&lt;/span&gt;" style="rounded=0;whiteSpace=wrap;html=1;" vertex="1" parent="1">
          <mxGeometry x="510" y="650" width="160" height="40" as="geometry" />
        </mxCell>
        <mxCell id="xqInLOvfpjBzlCC8Navy-26" value="" style="shape=flexArrow;endArrow=classic;html=1;rounded=0;" edge="1" parent="1">
          <mxGeometry width="50" height="50" relative="1" as="geometry">
            <mxPoint x="475" y="669.44" as="sourcePoint" />
            <mxPoint x="405" y="669.44" as="targetPoint" />
          </mxGeometry>
        </mxCell>
        <mxCell id="xqInLOvfpjBzlCC8Navy-27" value="&lt;font style=&quot;font-size: 12px;&quot;&gt;&lt;br&gt;&lt;/font&gt;&lt;h2 style=&quot;margin: 0px 0px 0.5em; padding: 0px; -webkit-tap-highlight-color: transparent; color: rgb(34, 34, 34); font-family: -apple-system, BlinkMacSystemFont, &amp;quot;SF UI Text&amp;quot;, &amp;quot;Helvetica Neue&amp;quot;, &amp;quot;PingFang SC&amp;quot;, &amp;quot;Hiragino Sans GB&amp;quot;, &amp;quot;Microsoft YaHei UI&amp;quot;, &amp;quot;Microsoft YaHei&amp;quot;, Arial, sans-serif; font-style: normal; font-variant-ligatures: normal; font-variant-caps: normal; letter-spacing: normal; orphans: 2; text-align: start; text-indent: 0px; text-transform: none; widows: 2; word-spacing: 0px; -webkit-text-stroke-width: 0px; text-decoration-thickness: initial; text-decoration-style: initial; text-decoration-color: initial;&quot; id=&quot;使用授权码获取授权信息&quot;&gt;&lt;font style=&quot;font-size: 12px; font-weight: normal;&quot;&gt;⑥使用授权码获取授权信息&lt;/font&gt;&lt;/h2&gt;&lt;font style=&quot;font-size: 12px;&quot;&gt;&lt;br&gt;&lt;/font&gt;" style="text;html=1;strokeColor=none;fillColor=none;align=center;verticalAlign=middle;whiteSpace=wrap;rounded=0;" vertex="1" parent="1">
          <mxGeometry x="365" y="610" width="160" height="30" as="geometry" />
        </mxCell>
        <mxCell id="xqInLOvfpjBzlCC8Navy-28" value="&lt;font style=&quot;font-size: 13px;&quot;&gt;&lt;span style=&quot;color: rgb(53, 53, 53); font-family: -apple-system, BlinkMacSystemFont, &amp;quot;SF UI Text&amp;quot;, &amp;quot;Helvetica Neue&amp;quot;, &amp;quot;PingFang SC&amp;quot;, &amp;quot;Hiragino Sans GB&amp;quot;, &amp;quot;Microsoft YaHei UI&amp;quot;, &amp;quot;Microsoft YaHei&amp;quot;, Arial, sans-serif; text-align: left;&quot;&gt;authorizer_refresh_token&lt;br&gt;&lt;/span&gt;&lt;span style=&quot;color: rgb(53, 53, 53); font-family: -apple-system, BlinkMacSystemFont, &amp;quot;SF UI Text&amp;quot;, &amp;quot;Helvetica Neue&amp;quot;, &amp;quot;PingFang SC&amp;quot;, &amp;quot;Hiragino Sans GB&amp;quot;, &amp;quot;Microsoft YaHei UI&amp;quot;, &amp;quot;Microsoft YaHei&amp;quot;, Arial, sans-serif; text-align: left;&quot;&gt;&lt;font style=&quot;font-size: 13px;&quot;&gt;authorizer_access_token&lt;/font&gt;&lt;/span&gt;&lt;/font&gt;&lt;span style=&quot;color: rgb(53, 53, 53); font-family: -apple-system, BlinkMacSystemFont, &amp;quot;SF UI Text&amp;quot;, &amp;quot;Helvetica Neue&amp;quot;, &amp;quot;PingFang SC&amp;quot;, &amp;quot;Hiragino Sans GB&amp;quot;, &amp;quot;Microsoft YaHei UI&amp;quot;, &amp;quot;Microsoft YaHei&amp;quot;, Arial, sans-serif; font-size: 13px; text-align: left;&quot;&gt;&lt;br&gt;&lt;/span&gt;" style="rounded=0;whiteSpace=wrap;html=1;" vertex="1" parent="1">
          <mxGeometry x="205" y="630" width="160" height="80" as="geometry" />
        </mxCell>
        <mxCell id="xqInLOvfpjBzlCC8Navy-36" value="&lt;h1&gt;link&lt;/h1&gt;&lt;div&gt;&lt;ol&gt;&lt;li&gt;https://developers.weixin.qq.com/doc/oplatform/Third-party_Platforms/2.0/api/ThirdParty/token/component_verify_ticket.html&lt;/li&gt;&lt;li&gt;https://developers.weixin.qq.com/doc/oplatform/Third-party_Platforms/2.0/api/ThirdParty/token/component_access_token.html&lt;/li&gt;&lt;li&gt;https://developers.weixin.qq.com/doc/oplatform/Third-party_Platforms/2.0/api/ThirdParty/token/pre_auth_code.html&lt;br&gt;&lt;/li&gt;&lt;li&gt;&lt;span style=&quot;background-color: initial;&quot;&gt;https://developers.weixin.qq.com/doc/oplatform/Third-party_Platforms/2.0/api/Before_Develop/Authorization_Process_Technical_Description.htmlhttps://developers.weixin.qq.com/doc/oplatform/Third-party_Platforms/2.0/api/ThirdParty/token/authorize_event.html&lt;/span&gt;&lt;br&gt;&lt;/li&gt;&lt;li&gt;&lt;span style=&quot;text-align: center;&quot;&gt;https://developers.weixin.qq.com/doc/oplatform/Third-party_Platforms/2.0/api/Before_Develop/creat_token.html&lt;/span&gt;&lt;br&gt;&lt;/li&gt;&lt;/ol&gt;&lt;/div&gt;" style="text;html=1;strokeColor=none;fillColor=none;spacing=5;spacingTop=-20;whiteSpace=wrap;overflow=hidden;rounded=0;fontSize=13;" vertex="1" parent="1">
          <mxGeometry x="40" y="740" width="900" height="190" as="geometry" />
        </mxCell>
        <mxCell id="xqInLOvfpjBzlCC8Navy-39" value="tb_application" style="shape=table;html=1;whiteSpace=wrap;startSize=30;container=1;collapsible=0;childLayout=tableLayout;fixedRows=1;rowLines=0;fontStyle=1;align=center;" vertex="1" parent="1">
          <mxGeometry x="85" y="1000" width="240" height="420" as="geometry" />
        </mxCell>
        <mxCell id="xqInLOvfpjBzlCC8Navy-40" value="" style="shape=partialRectangle;html=1;whiteSpace=wrap;collapsible=0;dropTarget=0;pointerEvents=0;fillColor=none;top=0;left=0;bottom=1;right=0;points=[[0,0.5],[1,0.5]];portConstraint=eastwest;" vertex="1" parent="xqInLOvfpjBzlCC8Navy-39">
          <mxGeometry y="30" width="240" height="30" as="geometry" />
        </mxCell>
        <mxCell id="xqInLOvfpjBzlCC8Navy-41" value="1" style="shape=partialRectangle;html=1;whiteSpace=wrap;connectable=0;fillColor=none;top=0;left=0;bottom=0;right=0;overflow=hidden;" vertex="1" parent="xqInLOvfpjBzlCC8Navy-40">
          <mxGeometry width="36" height="30" as="geometry">
            <mxRectangle width="36" height="30" as="alternateBounds" />
          </mxGeometry>
        </mxCell>
        <mxCell id="xqInLOvfpjBzlCC8Navy-42" value="&lt;font style=&quot;font-size: 14px;&quot;&gt;app_id&lt;/font&gt;" style="shape=partialRectangle;html=1;whiteSpace=wrap;connectable=0;fillColor=none;top=0;left=0;bottom=0;right=0;align=left;spacingLeft=6;overflow=hidden;" vertex="1" parent="xqInLOvfpjBzlCC8Navy-40">
          <mxGeometry x="36" width="204" height="30" as="geometry">
            <mxRectangle width="204" height="30" as="alternateBounds" />
          </mxGeometry>
        </mxCell>
        <mxCell id="xqInLOvfpjBzlCC8Navy-43" value="" style="shape=partialRectangle;html=1;whiteSpace=wrap;collapsible=0;dropTarget=0;pointerEvents=0;fillColor=none;top=0;left=0;bottom=0;right=0;points=[[0,0.5],[1,0.5]];portConstraint=eastwest;" vertex="1" parent="xqInLOvfpjBzlCC8Navy-39">
          <mxGeometry y="60" width="240" height="40" as="geometry" />
        </mxCell>
        <mxCell id="xqInLOvfpjBzlCC8Navy-44" value="2" style="shape=partialRectangle;html=1;whiteSpace=wrap;connectable=0;fillColor=none;top=0;left=0;bottom=0;right=0;overflow=hidden;" vertex="1" parent="xqInLOvfpjBzlCC8Navy-43">
          <mxGeometry width="36" height="40" as="geometry">
            <mxRectangle width="36" height="40" as="alternateBounds" />
          </mxGeometry>
        </mxCell>
        <mxCell id="xqInLOvfpjBzlCC8Navy-45" value="&lt;span style=&quot;color: rgb(53, 53, 53); font-family: -apple-system, BlinkMacSystemFont, &amp;quot;SF UI Text&amp;quot;, &amp;quot;Helvetica Neue&amp;quot;, &amp;quot;PingFang SC&amp;quot;, &amp;quot;Hiragino Sans GB&amp;quot;, &amp;quot;Microsoft YaHei UI&amp;quot;, &amp;quot;Microsoft YaHei&amp;quot;, Arial, sans-serif; font-size: 14px;&quot;&gt;authorizer_appid&lt;/span&gt;" style="shape=partialRectangle;html=1;whiteSpace=wrap;connectable=0;fillColor=none;top=0;left=0;bottom=0;right=0;align=left;spacingLeft=6;overflow=hidden;" vertex="1" parent="xqInLOvfpjBzlCC8Navy-43">
          <mxGeometry x="36" width="204" height="40" as="geometry">
            <mxRectangle width="204" height="40" as="alternateBounds" />
          </mxGeometry>
        </mxCell>
        <mxCell id="xqInLOvfpjBzlCC8Navy-46" value="" style="shape=partialRectangle;html=1;whiteSpace=wrap;collapsible=0;dropTarget=0;pointerEvents=0;fillColor=none;top=0;left=0;bottom=0;right=0;points=[[0,0.5],[1,0.5]];portConstraint=eastwest;" vertex="1" parent="xqInLOvfpjBzlCC8Navy-39">
          <mxGeometry y="100" width="240" height="30" as="geometry" />
        </mxCell>
        <mxCell id="xqInLOvfpjBzlCC8Navy-47" value="3" style="shape=partialRectangle;html=1;whiteSpace=wrap;connectable=0;fillColor=none;top=0;left=0;bottom=0;right=0;overflow=hidden;" vertex="1" parent="xqInLOvfpjBzlCC8Navy-46">
          <mxGeometry width="36" height="30" as="geometry">
            <mxRectangle width="36" height="30" as="alternateBounds" />
          </mxGeometry>
        </mxCell>
        <mxCell id="xqInLOvfpjBzlCC8Navy-48" value="" style="group" connectable="0" vertex="1" parent="xqInLOvfpjBzlCC8Navy-46">
          <mxGeometry x="36" width="204" height="30" as="geometry">
            <mxRectangle width="204" height="30" as="alternateBounds" />
          </mxGeometry>
        </mxCell>
        <mxCell id="xqInLOvfpjBzlCC8Navy-49" value="&lt;span style=&quot;color: rgb(53, 53, 53); font-family: -apple-system, BlinkMacSystemFont, &amp;quot;SF UI Text&amp;quot;, &amp;quot;Helvetica Neue&amp;quot;, &amp;quot;PingFang SC&amp;quot;, &amp;quot;Hiragino Sans GB&amp;quot;, &amp;quot;Microsoft YaHei UI&amp;quot;, &amp;quot;Microsoft YaHei&amp;quot;, Arial, sans-serif; font-size: 14px;&quot;&gt;authorizer_refresh_token&lt;/span&gt;" style="shape=partialRectangle;html=1;whiteSpace=wrap;connectable=0;fillColor=none;top=0;left=0;bottom=0;right=0;align=left;spacingLeft=6;overflow=hidden;" vertex="1" parent="xqInLOvfpjBzlCC8Navy-48">
          <mxGeometry width="200" height="30" as="geometry" />
        </mxCell>
        <mxCell id="xqInLOvfpjBzlCC8Navy-72" value="" style="shape=partialRectangle;html=1;whiteSpace=wrap;collapsible=0;dropTarget=0;pointerEvents=0;fillColor=none;top=0;left=0;bottom=0;right=0;points=[[0,0.5],[1,0.5]];portConstraint=eastwest;" vertex="1" parent="1">
          <mxGeometry x="85" y="1140" width="240" height="30" as="geometry" />
        </mxCell>
        <mxCell id="xqInLOvfpjBzlCC8Navy-73" value="" style="shape=partialRectangle;html=1;whiteSpace=wrap;connectable=0;fillColor=none;top=0;left=0;bottom=0;right=0;overflow=hidden;" vertex="1" parent="xqInLOvfpjBzlCC8Navy-72">
          <mxGeometry width="36" height="30" as="geometry">
            <mxRectangle width="36" height="30" as="alternateBounds" />
          </mxGeometry>
        </mxCell>
        <mxCell id="xqInLOvfpjBzlCC8Navy-74" value="" style="group" connectable="0" vertex="1" parent="xqInLOvfpjBzlCC8Navy-72">
          <mxGeometry x="36" width="204" height="30" as="geometry">
            <mxRectangle width="204" height="30" as="alternateBounds" />
          </mxGeometry>
        </mxCell>
        <mxCell id="xqInLOvfpjBzlCC8Navy-75" value="&lt;span style=&quot;color: rgb(53, 53, 53); font-family: -apple-system, BlinkMacSystemFont, &amp;quot;SF UI Text&amp;quot;, &amp;quot;Helvetica Neue&amp;quot;, &amp;quot;PingFang SC&amp;quot;, &amp;quot;Hiragino Sans GB&amp;quot;, &amp;quot;Microsoft YaHei UI&amp;quot;, &amp;quot;Microsoft YaHei&amp;quot;, Arial, sans-serif; font-size: 14px;&quot;&gt;app_name&lt;/span&gt;" style="shape=partialRectangle;html=1;whiteSpace=wrap;connectable=0;fillColor=none;top=0;left=0;bottom=0;right=0;align=left;spacingLeft=6;overflow=hidden;" vertex="1" parent="xqInLOvfpjBzlCC8Navy-74">
          <mxGeometry width="200" height="30" as="geometry" />
        </mxCell>
        <mxCell id="xqInLOvfpjBzlCC8Navy-76" value="" style="shape=partialRectangle;html=1;whiteSpace=wrap;collapsible=0;dropTarget=0;pointerEvents=0;fillColor=none;top=0;left=0;bottom=0;right=0;points=[[0,0.5],[1,0.5]];portConstraint=eastwest;" vertex="1" parent="1">
          <mxGeometry x="85" y="1180" width="240" height="30" as="geometry" />
        </mxCell>
        <mxCell id="xqInLOvfpjBzlCC8Navy-77" value="" style="shape=partialRectangle;html=1;whiteSpace=wrap;connectable=0;fillColor=none;top=0;left=0;bottom=0;right=0;overflow=hidden;" vertex="1" parent="xqInLOvfpjBzlCC8Navy-76">
          <mxGeometry width="36" height="30" as="geometry">
            <mxRectangle width="36" height="30" as="alternateBounds" />
          </mxGeometry>
        </mxCell>
        <mxCell id="xqInLOvfpjBzlCC8Navy-78" value="" style="group" connectable="0" vertex="1" parent="xqInLOvfpjBzlCC8Navy-76">
          <mxGeometry x="36" width="204" height="30" as="geometry">
            <mxRectangle width="204" height="30" as="alternateBounds" />
          </mxGeometry>
        </mxCell>
        <mxCell id="xqInLOvfpjBzlCC8Navy-79" value="&lt;span style=&quot;color: rgb(53, 53, 53); font-family: -apple-system, BlinkMacSystemFont, &amp;quot;SF UI Text&amp;quot;, &amp;quot;Helvetica Neue&amp;quot;, &amp;quot;PingFang SC&amp;quot;, &amp;quot;Hiragino Sans GB&amp;quot;, &amp;quot;Microsoft YaHei UI&amp;quot;, &amp;quot;Microsoft YaHei&amp;quot;, Arial, sans-serif; font-size: 14px;&quot;&gt;app_type 公众号、小程序&lt;/span&gt;" style="shape=partialRectangle;html=1;whiteSpace=wrap;connectable=0;fillColor=none;top=0;left=0;bottom=0;right=0;align=left;spacingLeft=6;overflow=hidden;" vertex="1" parent="xqInLOvfpjBzlCC8Navy-78">
          <mxGeometry width="200" height="30" as="geometry" />
        </mxCell>
        <mxCell id="xqInLOvfpjBzlCC8Navy-80" value="" style="shape=partialRectangle;html=1;whiteSpace=wrap;collapsible=0;dropTarget=0;pointerEvents=0;fillColor=none;top=0;left=0;bottom=0;right=0;points=[[0,0.5],[1,0.5]];portConstraint=eastwest;" vertex="1" parent="1">
          <mxGeometry x="85" y="1279" width="240" height="30" as="geometry" />
        </mxCell>
        <mxCell id="xqInLOvfpjBzlCC8Navy-81" value="" style="shape=partialRectangle;html=1;whiteSpace=wrap;connectable=0;fillColor=none;top=0;left=0;bottom=0;right=0;overflow=hidden;" vertex="1" parent="xqInLOvfpjBzlCC8Navy-80">
          <mxGeometry width="36" height="30" as="geometry">
            <mxRectangle width="36" height="30" as="alternateBounds" />
          </mxGeometry>
        </mxCell>
        <mxCell id="xqInLOvfpjBzlCC8Navy-84" value="" style="shape=partialRectangle;html=1;whiteSpace=wrap;collapsible=0;dropTarget=0;pointerEvents=0;fillColor=none;top=0;left=0;bottom=0;right=0;points=[[0,0.5],[1,0.5]];portConstraint=eastwest;" vertex="1" parent="1">
          <mxGeometry x="85" y="1230" width="240" height="30" as="geometry" />
        </mxCell>
        <mxCell id="xqInLOvfpjBzlCC8Navy-85" value="" style="shape=partialRectangle;html=1;whiteSpace=wrap;connectable=0;fillColor=none;top=0;left=0;bottom=0;right=0;overflow=hidden;" vertex="1" parent="xqInLOvfpjBzlCC8Navy-84">
          <mxGeometry width="36" height="30" as="geometry">
            <mxRectangle width="36" height="30" as="alternateBounds" />
          </mxGeometry>
        </mxCell>
        <mxCell id="xqInLOvfpjBzlCC8Navy-86" value="" style="group" connectable="0" vertex="1" parent="xqInLOvfpjBzlCC8Navy-84">
          <mxGeometry x="36" width="204" height="30" as="geometry">
            <mxRectangle width="204" height="30" as="alternateBounds" />
          </mxGeometry>
        </mxCell>
        <mxCell id="xqInLOvfpjBzlCC8Navy-87" value="&lt;span style=&quot;color: rgb(53, 53, 53); font-family: -apple-system, BlinkMacSystemFont, &amp;quot;SF UI Text&amp;quot;, &amp;quot;Helvetica Neue&amp;quot;, &amp;quot;PingFang SC&amp;quot;, &amp;quot;Hiragino Sans GB&amp;quot;, &amp;quot;Microsoft YaHei UI&amp;quot;, &amp;quot;Microsoft YaHei&amp;quot;, Arial, sans-serif; font-size: 14px;&quot;&gt;app_key 用于签名&lt;/span&gt;" style="shape=partialRectangle;html=1;whiteSpace=wrap;connectable=0;fillColor=none;top=0;left=0;bottom=0;right=0;align=left;spacingLeft=6;overflow=hidden;" vertex="1" parent="xqInLOvfpjBzlCC8Navy-86">
          <mxGeometry width="200" height="30" as="geometry" />
        </mxCell>
        <mxCell id="xqInLOvfpjBzlCC8Navy-88" value="" style="shape=partialRectangle;html=1;whiteSpace=wrap;collapsible=0;dropTarget=0;pointerEvents=0;fillColor=none;top=0;left=0;bottom=0;right=0;points=[[0,0.5],[1,0.5]];portConstraint=eastwest;" vertex="1" parent="1">
          <mxGeometry x="85" y="1290" width="240" height="30" as="geometry" />
        </mxCell>
        <mxCell id="xqInLOvfpjBzlCC8Navy-89" value="" style="shape=partialRectangle;html=1;whiteSpace=wrap;connectable=0;fillColor=none;top=0;left=0;bottom=0;right=0;overflow=hidden;" vertex="1" parent="xqInLOvfpjBzlCC8Navy-88">
          <mxGeometry width="36" height="30" as="geometry">
            <mxRectangle width="36" height="30" as="alternateBounds" />
          </mxGeometry>
        </mxCell>
        <mxCell id="xqInLOvfpjBzlCC8Navy-90" value="" style="group" connectable="0" vertex="1" parent="xqInLOvfpjBzlCC8Navy-88">
          <mxGeometry x="36" width="204" height="30" as="geometry">
            <mxRectangle width="204" height="30" as="alternateBounds" />
          </mxGeometry>
        </mxCell>
        <mxCell id="xqInLOvfpjBzlCC8Navy-91" value="&lt;span style=&quot;color: rgb(53, 53, 53); font-family: -apple-system, BlinkMacSystemFont, &amp;quot;SF UI Text&amp;quot;, &amp;quot;Helvetica Neue&amp;quot;, &amp;quot;PingFang SC&amp;quot;, &amp;quot;Hiragino Sans GB&amp;quot;, &amp;quot;Microsoft YaHei UI&amp;quot;, &amp;quot;Microsoft YaHei&amp;quot;, Arial, sans-serif; font-size: 14px;&quot;&gt;brand&amp;nbsp; 品牌&lt;/span&gt;" style="shape=partialRectangle;html=1;whiteSpace=wrap;connectable=0;fillColor=none;top=0;left=0;bottom=0;right=0;align=left;spacingLeft=6;overflow=hidden;" vertex="1" parent="xqInLOvfpjBzlCC8Navy-90">
          <mxGeometry width="200" height="30" as="geometry" />
        </mxCell>
        <mxCell id="xqInLOvfpjBzlCC8Navy-92" value="" style="shape=image;verticalLabelPosition=bottom;labelBackgroundColor=default;verticalAlign=top;aspect=fixed;imageAspect=0;image=data:image/png,iVBORw0KGgoAAAANSUhEUgAAAyUAAAEqCAYAAAALXf9jAAAgAElEQVR4nOzdeXgUVbr48W9VdzYkQCQgBAkgSIhIEiUgErhjkNHIZVFn4obMvQPe+akzsgiCjsvcUVwAWb2Cd67gDIKOhFFIEINLwgwElUUhMYQAGggSIiSABLJ2V/3+qO5Op9OBJkmnO+H9PI+Pobu66nRtfd465z1H+eFokU4dCjo6CkL4Izk/hT+T81P4L0VR0HQNRc5Q4Xfk3ilA0XVdv/RiQgghhBBCCOEdqq8LIIQQQgghhLiySVAihBBCCCGE8CkJSoQQQgghhBA+JUGJEEIIIYQQwqckKBFCCCGEEEL4lNnXBRDiSqdpOharFU3TjP90HU3TfF0sIYQQQogWI0GJED5gtVqprrFgsVqRUbmFEEIIcaWToESIFqTpOpWVVVisVl8XRQghhBDCb0hQIkQL0HWdqupqqmssvi6K8AOKApqOzF4shBBC2EhQIoSX6TqUV1ZitUqeiDDoEpAIIYQQdUhQIoQXabrOhfIKyRsRQgghhLgICUqE8BKrVaO8sgKJR4QQQgghLk7mKRHCSyoqKyUgEUIIIYTwgAQlQnhBeUUlmkQkQgghhBAekaBEiGZmn39EtF3rPljHug/W+boYQgghRJshQYkQzayqusrXRRBCCCGEaFV8muh+rqyMg4cO07dPH8LCOvmyKI128lQJJ06coE+f3nQIDfV1cTxSXl7ON3uzKSw8RuGxHwGI7HktkZE9uTkuhnbt2rn9zIH8g9x8U1xLF/eitmV9CcDIhFt9XBJDZXW15JE00qGVs0jtNZuZo7v6uihCCCGEaGE+C0rOlZWx55u9WCwWvqeA+LCbfFWUJik8dowzZ85y+sxZBt8c59eBSUlJKRtSP2b7ji/rvXcg/6Dj7xHDb+WhB37tCE7Ky8t5bcFiboqL9augZFvWl6x8Z7Xj374OTDRNo7q6xuvbKS8vdxs4tm7f8U0OHM2Zz0KaMTDJeYepK3OBLtz3zBxGXNM8qxVCCCFE8/JJUOIckJjNZvpf388XxWgW/a/v5/gue77Z67eBSWHhMV5bsJjyigoAQkKCGRDVn8iePY33jx3jQP5BKioq2b7jS775di9PPzWD8PDOvLZgMYXHfuSmuFhffoU6XAMS+9++DEyqLd6frb209DQfbUjlkSn/6b2N/JTBwlc3c7SZVtdrrCdBxo3cv2Q2PV6Zz7pN77B9UHMEEN/xwcpc29+n+DrnJCOukVYYb6nKXsWkye8Q8dJHLLkr3HgxewGxD69l+Eufs2KC7TWymR/zG9YmvMgXK8YT3uAa2xLbd564mn1zYnxdGOG3TrL19UWkk8STs25D7lbiStPiQYlrQOKvlXhPdQgNZfDNcX4dmBQWHuOFF18BjGDkoQfua7DyvuWzL9iQuonyigpeW7CY8PDOji5e/sI5IAkJCQagoqLS54GJpcb7QcknWz4lO+c7vvp6F8NuGeKdjVwziplLRl1ysdLP5/HnTadg0H+ybMqNl1z+0MpZvJHjSQFOse7VWTSYRu7R9r7jg+l/JcvWQnLNplm8sWk+H1zzOvcP8qQMQojWKn/df/NO7kB+++dkonxdGCGEx1o0KGlrAYmdPwcmJSWlvLZgMQA9r+3BtD88Rnh45waXv/OXtzMy4VZenb+IYz8e9/uA5JmnngTg1QWLfBqYaJru9SGAf/zxODt37gZgy5bPiBk00IfduL7j802ngIE84UFAUmsgTyz5Ldc3cptGoOHpck5dtqa8zhMrZ/HGynn0kG5cXhEUM5l1uyf7uhgeqzqQzvwVb9FjygYmS+NF21Gzj6w9lYQlJEhAIkQr02Kjb7XVgMTOHpiYzWZHYHKurMzXxeIjW6tHSEjwJQMSZ4qieLlkl89dQBIZ2ZPIyJ4889STjlaTle+sdiTAt5SaFui69eFHqY6/S0+fZus/t3t9mw05tNIIDhKmNDbAqKv083lMfSWD0iavyU1AYnP9lNd5YpDRCvOBRy02oi0ry09lfeYRSnxdENGsyr7eykG6k5AY4euiCCEuU4sEJW09ILHzt8CkvLycrB1fAfDQA/d5FJDYk9pbQwtJZGRPx/u+Dkw0TfPq+rNzcjj8/fd1XvvXv7ZRWnraq9t1K+cd3sgxckWapSvUTxn8ddMpOLmLvJ+aVq6p0/9KVtcx/GmJ+9aQ66e8zp/GdiFr5SwWfn6yCRsTQvifIrZuPwH9b+OWtlfFEKLN83pQcqUEJHb+FJjs+XYfYFTiPenO1FoDEjtfBiaa7t2gxN5K0iOiO/369uXqq8Mor6jgky2fenW79dUmjx/dNP+yWhyun/I6y9x03Tq0aTNHPRod60buX/K6m3ySk2x/ZRZTV+bSa+xslv1xFBcLvzuPnsOyZ8bApvnN1Dpz+WbHxDFkXna91w+sHENszCNsPO7yRvYChsSMYdWBS625hF1r5jBl/EhiY+KIjRnJhMlL2XXOeZHdrJn9CBMS4oxlEu5m+srdLi0GJWx8LI7Yx1IpoYwDG+fycOJQYmPiGJI4idlrXJc3yhgbE8djGxvb9uCm7NNWsct1dbbtzM+GqoJUnk8eSmzM46R9PpchF9n+uU9mEBszhlVfpfJYTBy3P78DgLUP2/ZDzALqHJFz+aTPm+HYT0MSJ/HSxnzOuV17GQc+WcD05NsZEhNHbMxQRiXPqH8cAaoKnNY7lFET57KxoLFzG11qu9nMj4kjdl62bbuPMyq+Mdv18PvZ9tl9tnMlNv527pu2iqzjrttxPr+KyHKUayQPv5SOsdoqCj5ZwGOO8+5xVtU7GVzkZ7HnTDCDR8QSUOeNGs7s/Yg3X/9vnpvzNE/PeZrn/rSQVan5nKm3klxWz3map/+WCxWFbP/bwtrPvLaKrYUVbjZsW/9rz/H0nKd5es5z/PeSFPadbqbRGE/vYdWfnubpP/2Fr+o8Synjh+2rWfqn2u3OW7mVHxxVjiLSXnuap+esJrf+WoF8Uv70NE8v2Y7v+3UI4eWckoqKCkdAAnB1WCdOnSrh1KnL/9GK6N6NkJCQ5i7iRZ0rK2tUWcH4ridPlTgCk2FD41u8/IXHjgEwIKq/R8sfyD/ITXGxDY6yFT3As/U0J08DEjt7YNLSOSaa5r18ks2ffMrp08ZP57333s31/fqy+ZNPSd/yKTt37uaWoUO4vl9fr23fmdFtayD3jT3Juk2nmr7CnzJIzQEG/Xvj8jwcQ/5eZq7KNaOYueRGtr8ynz9P3+zhCGHNJyEBtuzOp4AY+jhezWdHShFQRFZ+GRN61D68ObArk+rAROIHXGSlxzN5/rEZpBZ1ZnjyUyx/PoLAkgIyM/MprbYvlM38UY+QEnUnE2e/SUIEFGW8xdyljzClbDXrpscQVGelZWTNm8SC7Cgenb2caaFFZKWuZe38R8jMeo1PViQ12+hZ2fNG80hKFHc+/BTLEyKgKJMVLy3jkcllvJsyjZgglw+cy2L+5BdItX03LS6ZxyLWszR9ByUTXEf1KmNHeiYMepY7b4onfuXbTMhYwJy1+STOfpuJUQCd6W1fvCqb+Q//hpSy4STPfpPnIso4kr6epc/fz+4Dq1k3x2k/VeWzavIkluYEMSjpUV6aHUXnqiLyM9MpLQV6OJfjCBunL2Bt6KM8tmQi5Kewasl6XkguIih9OUmXszMve7tLSY14lNkrJjttt4zQjHmM6tD07VQVpDA9+WV2BA3izsde5KmocEoL0klZuozH70pl4poPmF3vIOaz5rGl5PSexksrxlOQ8g5LU57mbkJ5N2Ytk1YGMW32ciaTz9oVC1g65RFYt4HJbq+DGvZt30NlWAIJdZJJyti3ciHvH6zE3OUGRifHEsYZcr/aTnbWO8z7IYknp7sb6aqQrf+bxZ7QW0h6cDT8sJ2tXx8k/c1VBD/3e4Y5PVs9mbmcRemnaN9zMGOTriPkTC5fbd/D+/OKODNzGrc15dZSkcvqpSkcrOxO0szfMcyxrgpy/7aQd/db6HLDaJJjw6go3MPXX6fzl9cLmfT0bxgYEsFtI7qTlbafPbkwcKDr7s8mtxL633YLbfdRsWhNvBqU5B887AhIwJho8GQjK/llZeeJi23ZYXMOHjrMmTNnm7wei8VC/sHDLV7+wkL7xIgNV+Kd3XxTnF/PQxLZs+dFAxLHcpE9iezZk/yDh4CWGS5Y91KSe3l5Of/617aLLpOe/inX/+Exr2zfWenn83gjpwv3PfNbonPm1b6R8w5TV568aEvHJUfeyvkrU6d7XpZeY2cz/uh8W3leZwQZLJw+67KHMe41djbLRp/kg+nzmbpzDMv+eOlRx5pDfOIgmJtJdkkyfewV0YJs0ouGMzxhB1uysnlpVIKt4ltEflYRTBh+kcTdAlJmzyC1aDgvblzOBEeFNJ4hd9VdMua5D3j0vigc9dAh8YRXj+TxVWvJmhxTt4KatYC3er/N5rXxjuWHjBjPhJhJ3D3/BVbsSuT5Ia4VzUaKeZYPHktmgGP78cR3rmLE4++wJmsy80fVrTYVrF0Lsz9gm9N3OZAcwdKl6WSVjGeCcwW/JJONmTD8pUR6BIXTY0gEEUVGe1pETDxD6iS6l5Hx/COs7fEsm1ckO+r2Q4YkMTzmccY8/zRrJ2y2VYyryJo/iaU5EfUq3UNGjK//HdfOJf2lDaybYMt3GBJPYu9QRjy+nlUZBSTd16f+Z9xq3HZXuttu+jRG3ddQ/oWn28ln7bSX2RExkXdTnqoNIIfEkzQhmVWT72fp5AUkZj1HndMlay35L212lCthSCJ9QkfyeMrvuX/jr1me9RwJQQDxDBkQyMMTXmbFxmwmD3AzMkHZ12w9CN3H3Ybztyn7ajXvH6yke9KTTEusjQ5i42/jru1vMi8tnXdS+zNnvMs+2P9P9iU9yUz7Z+JiGRy5ij+nHOSfmUUMsy//fQrL089ww4Nz+E2c/RyNZfCwgax+7X3S133F4D8Ma2Sl/yRb//dd9leGMXjy7+oEN2VfreLd/aH8YtpU7ooIcJRxxLBPWLjwn6Sk/cDA+64jNHYw3dM2sX93/agk96s9VHIDt8TVbVcSwle8GpT0iuzJqZLaICQ0tD1mc+M22cuDymhz69unD99T0KjPWiwWysrOO/7ti/K3dt98u7dZ1+XryRUb48MNqY65ZRpy6PD33h0imNrhfxOmvM6Ia6DUKcAo7frv/GnsO/z51Vmsa2C43uunvM4y13KvnGULKhoOZpy3Wz9/xXmdDQxjbGtJcf95u67cv+R17m/obS/oMWQ8UbxMVnYZE2yV7ZLsTPITkng3CXa8tIP85xOIATiXT9ZuuPNh11YMJ9nrmZ8DifPmOQUk7sSQdJ/ra0FExcRDShll1a7vJTLtsdqAxK5P8qP8ev7vWZ+Rw/ND4j35ypcUc1dyvdeCBsQQz3rKyqrApVq3I3B8nYAEYEDSbxm09GXSs0qY4BSVHM9IYQeJzEv0oCnieDqr0mHimmRcd2WPxGTuZAZZ+UVMHhABJVtYk1JNxLR5bloB3Ih4lGkT6lZ+g0Ykkcx61haUAh4GJZe73ainmO263SGJjGc96wuKgAaCEg+3U7UrhRVHAvn1yqn1W7SCopg4/desmLKe9F1PMWSE8wK/5uEk520HEZ84HlLWEzV7oi0gsekTz4QomHvkCCXE1GuhK8rM4gT9ebBOMkkRW7ceg7AEkhPrN1eEjbiHhO3LyNq3h8LxEUQ6v9k+gXtcPhMSG0v/lIMcPHMKY5/VsG/rHiq7JJEU5xJ2hMQyYuBH7N9zkB8YxuXP8lVB7t+Wk34imBt+M5XkKOeeFrbvdcOk2oDErusIEnr+kw0/5HOS6+gaegu39d/E+/v3kMtAHGFJzT6+3g/Bg2/BtQFFCF/xalASFtaJgTdEk7s/z3hBh9hBNxIQ0Dqi8rCwTo2aab6mpoY939RWqAfeEE1YWKfmLJpHIiOvJf/gIUc3rtZm4gP3EdmzJyWlpY6E/cuVMHwY4Z07ez0gURWl2YcEdh4C+FK8OkRwzjsXCQyg8zVd4Zo5LBttjHw1dboH+SG2ZPmLd9uyDTvcdQyj29rcIn1iSIqApbvymT8qHihjd8YOohKfIiamiqjq9eQXQEwfqMrOYgvDeTGm4WetBQd2U81wkoZ48jy2iuMHdrN7927ys3PYXVBAQb6RWZNfBHVqe1HDiXLXtScoipgEWH+kiBKXjzRF1fF8du/eza4D2eTsPkJBQb6R83OgiLpNHzB8VP1giR4JTBgEc+t04Spix8YcApPfJvFi3ZRszuXvJodqch6OY21DCx0ogQkRVB3IZgeB/HaIh4PPJsZQv+dRoPE/p31ZsvFxR85LrYm8m/0UMXD5243vUz/cCQo1gtyLHENPt1OQvYNqEkmIch+4BPWJJ5717Mg/AiOc1hUfQ2+XjwR1CLIV2bXEoQQ2eKLlk7XnDMGD7ybWuXpRVkjhGQgePLCBsCuC/pGQta+QojKIdL58IiPrBikAAcFGpenUGU4CXTnGwUKgMp1Fc9IbKNspzhgLczJzIYvSXbu93sCkeb9xCQzOsP9v80jfD/2Tp/GbgS5dv23fizPv8vScBjbLKU4BXQnghsH94WDdLlw1uXs4SBgJI2TgZOE/vD5PSUT3bgDk7s+j7Px5xxwerSUwuVz2gKTsvNFKMvCGaMc+aGn2blv5+YcavY6PNm4iPNz7lXp3wsM7c8+EsXy0cVPj19HZWIe3KaoC1uYNSpyHALb76KONhISEOHJM7OxDBI+5645mLYO9pcKzkbaMRPTRn8+7aKtJbbL8xec4Kf38Y7KAXkNvvGjieusURXxiIGRmc2BOPAPO7SYjM4rk6X2gTzVJES+TkV1Ccp9w8nenwqCniL9Izb+sIB+YSMSlogN73smRQDpHJZCYMIjxCb8l/MAy5qzNr798eFAL9TUvIuO5x5mReoTAzlEkjBrOoAkJTO6cz9I5a3FTMvr0cfdlI7jz4UTmzkkh8/h4knsABVmk5AQyfvqghluanFSXlQFRTJz3FA02rIQbFeay0iIgnj4ejz4b6NFSofGP8vZK1zlfanNevLVdV55up7qkCEgkvKGgLzyCPsCOEpeE9yAaPiaX0SuwZm8WeyrdVLArKqkEQru0b/CzYd27wL5KKitwaYzzpHpUQUUl0PMWHhxxXQPLBNM9zLatgWN5MKzStQT1g59TX5N+Cgj7BUnxYW42a3yv9jeMZVxsQ1do7XoD4hIY/NFB9ny1j5qBsQRQQ/aegxCWwGAZOVn4kRaZPPFKCUz8KSABGHxTLCvfgfKKCrZlfXnZgcWWz75gY9rHgO9mSW8tVEXFSvONwOVuCGAwcld0HXTqB0D/+tc2bvvFiGZrLbl416mGdR49h2WDMlj46l+ZOt1NAnoO3DxlIFkrc3lj+iz3M7TbhwnuOob/vGQC+qUnVcxaOavB9y/3+zWXqITxsHYLOQWT6XM8iy0RdzK5D0AUgxJhaVYO5yb0Jj+rmqjk+HpdieoICgRKKDkH9ZsP7MpInz+D1OqJvL39KYY4LVfScJtAA0opLQD6NK6y6+rcJwuYkVrNxJXbmO3c2lOSyprLXFeHhPHcyQw2ZhWRfF8EBbvWkx/xKC96mvsSCFBAYA/XXJOGlj1CaXM2FwFBPWIYcrED7qXtNno7lzr/zpVSAkT18UaIW8bXWw9C97Hc5lrBNhuVnDOnzoObVHaA86fKgEhC3dT9L81sVKIsYUTGxXKpVQR0jSLWk6T3Lkk8flchq1b/k7/8bxiP/79hdUtv+17nA7oQG+dJS0cUgwcGs2fPHvbXxBJLNvvc5N8I4WstNqN7Ww9M/C0gAWjXrh0Jw4eRteMr3v97CtFR/T2ePLGkpJSNqUZAkjB8mDeL2SaoavOOru2ulQTqj77lrLyigg83pPLwQw80cesn2f7KfNadtCWRN2ZULKfRrd54JYM/OQ/TO+hGrudGli0BfrIHL0DXMcZyP2Ww8FXbMMFTLj68r+HGhnNCPMop8Y2gmATuZD0Z2UVEHUglMPFtR9eeqCF3wvTd5E8rIyM/gqSYi+ca9I5JBDLJyq9iVIOV7wKyM4GJd9YJSABKSo64/0hWNvlV4wl3XeXxbDKKIGpyVLPUiY8YBavf/aykhAZK1rAOw0lODuSRjVkcvy+GzFX5RE1+rX63qQbiqfA+8USwgx0HCph+if1uXzYj25Zj0kJaaruebudS519VfhaZBDLe86YdzxVtJesE9H/QzQhSV0cSEQwnfsiliOvcVMCLyP2hEsK60L1RVZEIrusJ2cd+4Iea2xjcjNWZ4IG/4fGkpSxK38Dyv4Uy5z8G4ujEZf9e3x+kkKj6LS1uXDdiMGF7stiTW8N1lV9xkP4ky2Quws+02IzuYAQmA2+IBnAEJjU1zTSOtw/5Y0Bid8/4sYSEBFNeUcGyN9+ipOTSszIUFh7jtQWLHTPBT3ygfgKqqCugkQM4uJO59V/1umd5aufO3fz4o7vJETx3aOV81p0cyBMNTEDoua6M+OPrF5835JpRzFzyOsuWzOY+NvPn6bOY+upmjgIJU5q6fT/XIZ6kJNiRvYqNKZB8V+1j+Q4xCQwnk8w12ey41FDAQIeEZH4dWM36l5bVnZPEnaKiunNtHE9l6YqiBhZez4o1+dTtdFPExrkLyGE4E0d5OlqUJ4ooOlf33xuXvkVDJWtYEDFJ4wnMSWXHJ1mkFA0iOaF+OcN7GK9VnXPpUjQggeTekD9/gZt5RsrY9UlW7RwtA5KYPAhy5s91PyeJt7TUdj3cToeEiUyMMM6/bNcpSaryWbtkPdW9HyW5uUZqc5K/fQ9nggeT4HYEqev4xW1d4EwWKZn1J0s9s/0jss5Az9sa22IQysD4nsBB0t7LxXVIkpqirWx31/fQQ10Tf8ekG4Kp3P8uC+us/zoGDwyG81l85OZ7le3dyh7XeXUjBnNDGBzck8We3ceg/2Bi2sYzYdGGtGhQAm0vMPHngASMvIxnnnoSgMJjP/LCn19mewNJ4+Xl5WxI/ZjXFiympLTUMS+IV5Kn2xhVVVAVpcnrKS8vZ8uWzxp8/43/WcHU6bPqtZI4+2iD+1YWTzU0yaE3GYFQ3deyVr5D47OhWoNQYhKGw8ZUUqvH151bIXwQo6KKSElJdTMUcAnp00YSmzCDdHvtOCie2at+S1TRWh65axKzl6SStWs3uz5JYf7subblokia3BsyX+CR2WtJ37Wb9HVzmXLfKkJHNTCCVvxEYnY/wqTZS9m4fTe7PlnL7In380IWDH/pOdfc80aLuuu39CaT56fMYc0nRrlfmnw/q0ITaczYXkFDknksIodVS9dTlDiRO911heo9iERg/fyXSdm+m/QlKbbJE6OYOPe3RLGDFybc79iX6evm8lji7TyS6vxgJ4Lk+a+RGLSDFybczmMvpZC+aze7tqey5qXHWVV/fsxm4o3tVpG98n6GxN/PKkdk4eF2gmKYNt84/yaNmsTsNenssu+zpEkszR/Oiysmu0nyb6KafWTtqSRscEKDw2V3TZxEUnczJ9IX8dzrq9m6ex/7dm/lvf+Zy8K0YwTfMInJwxrfYhA6LJmk7mYq97/Ly6+vIm177fr/vDSdHyyXXkfDQhj4H9NI7h/M+X3v8henAOS6ccnEtIcT6YuY+z/vGd9rexqrXn+Ol9/fQ1m97RpzllC4la3H3E0wKYTvtVj3LWeuXbly9x9o8Tk8mkvu/gN+G5DYRUb25MUX/sirCxZRXlHB26v+xnvvr2PAgP5E9uxJeXk5hcd+pLDwmGP4WU8mKmxppaWn2WDrUubJsi3NbDZT3cQA+5Mtn15yCOBLOXT4e7JzcogZ5P/XlD1vBaiXW3Jo5Swj58TerctHZfSm8JhEoqp3kJ+UwKA6D5H7MCgpguqlRdyZcJGhgJ0ExUxjXXoCa+YvZdWaF9iyCgjtTXzCRMaHAgQRM/1t3g59mbmrFjAnPZDOg8Yzbc0HJGTPYIu7wYOCopi8ZDVR819g6fR3KK0OpPOgRJ5a+RQPD2m+ZIagmGmsXBnK3JfeYcGcLQR2HsT46atZl5DD9PQtjVhjFMOTI1i6tIg7Zye4T7PpkMRzK4uomv0Wcx9PJXTQs7zrVJ516QmsemkBa2z7MrBzFAlJL/LBYy4TRvZIYsknfUhf8RYrUl9mTgoQ2JmohCSmebNHV0tt18Pt1J5/b5Gy4mkeKQNCe5M43thnAzwY+exylX29lYN0Z2zixb5wV26bPofI7R+RlnmQ9JT9AJjDejL4wd8zNi6siZVz2/ozU/ho6w9kpR0kCzPBXbob62/yeLthDJ7yOGVLFpGevoil2OZbCRnIQ0/PYeBHq0nbl016SjZgpn33/oz93T2McJO7Ehp7Cz3TNnAseDCDZdAt4YcU3Vuzvnmg6EQxufvziLq+n19Vfi9HYeEx8g8d9tuAxFl5eTlr/55yyeF1E4YPY+IDyX7TQrLlsy94/4P1jfrsg/f/mjt/eXszl8g9Tdc5f6G8Ses4dLh+cntjhAQHc+21F02NbpLGJsEb6iamX3w2dXt+C24S4p3ea7LLmxF+3QfrALjv/nqTfrQRJWx8bDQv8CJfrHCdHb11OLByDPevGM7brhP2iTaiiLTXlpHV5UFemiJP/T1Stp2lczdRmTC1/mSRQvgBn7SU2EV07+b3FflLiYz0bJZxf9CuXTv+a/J/MPGBZPZ8u4/CY8ccs76Hh3cmsue1jEy41W+CEbuRCbdSeOxHj/JhnLX0UMaqohAYYKa6pvHt9df369uMJfIvzrO6J0x5nWUeBTNGXsoIWwAy9RXnVhP7e0K4qNpNyooiApPHS0DSVuVnsedMMIPvkYDEU8YEk11IGiYBifBPPm0pEaKt0XWdsia2lgj/Jy0l/u34xscZ83wZz218l+TmzMUXorWq2Mfq195nf2Qyf5oymJBLf0KIFufTlhIh2hpFUQgMCGhybokQ4jKVZLImI5Dw6vWsmL+D3pNXM2GPhKkAACAASURBVF4CEnGFy//kPU51ieCHz9PZX9mdpHESkAj/JUGJEM0sOCgQq9WKVWu+yRSFf2m7LSStWRVZc2ewI7Q3ibNX8+LDng0QIESbdiabTVuzMYf1Z+y0SW4T4IXwF9J9Swgv0HW4UF6OJpeXEEIIIcQltfg8JUJcCRQF2rULoRmmLhFCCCGEaPOkpUQIL9J1nQsVlWjSlUsIIYQQokESlAjRAsorK7FYrL4uhhBCCCGEX5KgRIgWUmOxUFlZhVxwQlFA00F69wkhhBAGCUqEaEG6DpXVVdQ0YYJFIYQQQoi2RoISIXzAatWoqqmWLl1CCCGEEEhQIoTPWSxWaiwWNE1D13V0jAR5IYQQQogrhQQlQgghhBBCCJ+SeUqEEEIIIYQQPiVBiRBCCCGEEMKnJCgRQgghhBBC+JQEJUIIIYQQQgifkqBECCGEEEII4VMSlAghhBBCCCF8SoISIYQQQgghhE9JUCKEEEIIIYTwKQlKhBBCCCGEED4lQYkQQgghhBDCpyQoEUIIIYQQQviUBCVCCCGEEEIIn5KgRAghhBBCCOFTEpQIIYQQQgghfMrs6wII9zQdVMX4O7tEI61QIeNHjbzSGs5WWQEICzYRdXUAo69VGBsJMeFqvc8K79B13aPlFEVB13UURQ6IEEII0RBN01DViz8r92QZ0XqUV8GRUh3FVqdSdE9rV42hW6k4sR50CzqAR1tSAB2zSUEzhREUfjuKGui1Ivoje1CRe1pjWa7CxqMaZ2pMKFYruqUaFQ1dB101gSkAxWTi6gAL43qpTB0IA69WJTDxIl3X0TxYTgFURUG3/S0uQu4VTSf7sGXIfm575Jj6lPODu/MXLrB3bzZnf/4Ze+1UVaBjx47ExcXQ/qqr6n1GtE5nyzWWflLJwbPt0CyA7u2WEt2KenoNQe0CQAM8OYF0+386BJmoKoWgLneBbgGl7TfsWDUwqbDmoJU/7VMprlRQKmsI0SvR0dFVBd1WxVWwompW0OGcxcSaI8F8VqzxUpzGxOtVx7pE81IUBZOHy2q6jopxSssN9CLkXtF0sg9bhuzntkeOqc/Yg4ufz/3M+g9T+aHgCMePFxEUFIzJbEJBwWq1UF1dzTXpXenX9zp+fe94OnboKIFJK3f8jG4EJBUX0DTjAa53rxxFpewCENiboLAb0C0VoFyilmw7yXRUlPNfYK086dUi+hNNN4KIZdlWnt9rQq+u5Co0atDRVRVF11HQ7Q9oQFdAMSq7AbqGuaqc0mqVx78KprTCwtQYs7SYNCN7i8fh6gtsu3CWjqYANHeP1HQdRYGhwR3pGRiCVdMwqarcQC9G7hVNJ/uwZch+bnvkmPqE/Tfxq6938e7av1NRWYnZHEBgYBC6rhES1A4UqKjQ0HWdn346ycmTp/jmm71MmvgAw24ZIr+rrZgKoIGmKVg14wWvh/O6VgNYQdcAW6X6YhQwqn/G8qhXxhMHe/Dw90MW/pxjIshaiaoa3YRMumLsElVB05yaLRUdBcUIOlRQdIUQRcNqqeTPOUF0DbHwwPUSmDQXXdPQFYVKTWN9WTGbz/wIpgbOT81KfPsufBI5mDBTgNFi0iz5JftYljgTFn/O1LgmrMYPyb2i6fx+H+5dwsgZ3/PM+28wppt3N+VNfr+fW0DuotE8ykK2PRnr66I0iyvymBanMfPBpfTywe+JpumoqkL6ls9Y948NaLqO2WTi2h7dGXzzTUR070aXLuGYVJW/r/sHuXkH0HUdXde5UFHBX1b+lbNnz5J05y8d6xKtj6bX9pbUdN3b3bd0R6Kv8U97e+fFPqKj2p8qezHdxd+oCuSd1ngxRyVAq0FBp0IDRTcuNpNJAV0jIEABFBQdNIzXqnQFiwV045kNoQE6VmsNL+aYiO2sEX315ffhmpk4mp0XeX/ojDUsHN+KaxWNYD+XbwwO5ePIwTweEMKK00cIVAOwuixrNsHuC6UsPV3Ii136YtWNTnfyRKcBfnKvyF00mkfTxvJW5nQGul2imM2PP8yrTGPD8nF0tgWJKW6WTG7pH3o/2YdtnuzntkeOaYvSbfWanbu+4R8b0gAj//Lu8f/Obb8Y6cgbASPHpKS01BGQ6E6/pf/YkMbVV3dm6JCbpcWkFdJ0o/ejroOGjm5VvN19y5b74PR/T08aoyVAgSvkYtd0ePuQzjnNRKBmRTMpxHTS6RpsJiQAzApomLBoGjWaQpVFp0aDn6tVul+l8nB/E5oOy7+zsPuUztVmKz9rgbx9yMqCoZffUrIw83PH36WpT3D34r4Xqai1ZTq6bu8vZ7RKWTUNRVFY3v0GOqgm5p36AVU12bpyGTtaU0A1mVl+5gj/0bE7fcwhVGsaJts1YD8echO18ZN7xcBRYyFtE1/snc5AdwFF8S6+yIOhM4bQ2ellvwjS/WQftnmyn73Axy3AfnVM225ruJ2RQ3KOd1avwWq1YlJN/Ncj/8HQ+MEAWCwWKquqyMj4J3uzczhedMIRdNj/b7Va0TSNd1avISqqHx07dPDxt7pMxWnMfPBTbm/lrcZN4XzFaBqoii7zlPiLA2d0tvyoEFxjocKq0K+jwlu/COTJWBMTeisM76YyKAx6tVe4JkQhPEThKjN0Dob5w8zcfZ3KvX1VVtwWSNcQhWoNgmosbPlRIf+MJ2NFCfcUFMX+Y6Wjo2BSVdB1NF3ntWuieCK8D5pW4+hSh2JfUuV0dQWbKkswmVSCzCbMJhWTqlzWj55oQXGJJAMpGfvcvl2681N2Es3tQ6/QXxEhhGgCq2bURz7ckEZVVRWqqjJh/BiGxg9G0zQ0TcNsNvPpZ1/w8ZbP+KHgiPEgzzYMsPPvpq7rVNdU8+FHaXXWLVoHRbcPAgQWDe4aZJV5SvxF5gko11WCsaAoEKhAZKiJqE4aNboZq6ZTo+nUWKFaMw7iukMWsoo1ruugUG01LtAeV5mIbA/Zp6EDVsp1MxknNKKv9vU3bK10yisVTv6s0/sasFp1R5Ci6zoWdBZe058z1mrWnDmGqgagKYAGVjNgDmT1vgJMx85woqScaotG/16d+OWwnvTq0QFVAhM/E8vt4yAlLZPcJ2NdWgaL+To9D6KncYvEJEIIcdlU20hbeQfyCQgI5Noe3blj9O1oth4IiqJwofwC+7K/s81JoqBptjks7F3sbJ0XFEUBXSF3fx4/n/uZDqGtrLXkSmdrYKysgW4ddCbEXVFBia0veF7tK3W7XNTvG96SfcJ3/GQk+CiqjkmFQDOYFCM52qzrmE06ISZQAx1XI93bKZyqhMwijcRrVUBlyzEr359X6BhkH15NZ8dP8Hsv9bsy+uDX/rvePtu7hJEzNtX5jOsyjoTJUZlOy0bbkmFdjsu4lk6s1KmyKDy7WmfKHTAqVkXTjGEibA0mmFFYes0Avqs6z96Kn1F0FT1QQfnJQkjaWY7svMBzFVYsmo5ZVThfUcOkcQNY/txttAsOaHoRbcmKO6mbC2F0u6s94WvPd9u10M/NvvRh4qO/GPjQNIamLa3fhcvWdSt58bg6XbdEQ1zvqWN5a3EDi9a7T0Q3mAzvel7DxXKA2q7cRaN59LA9t8nGdv3i0p2wflK6m2Pjbh96clwc9x9D/a6M9X97ia4td53fkBmjjTK1+H3eP1x6X7jZlw3uq/p1Gn/oZqooCjk5eZSUnsZsMnHzzXEEBgZgsVgwmYzB9qura7BqGprVitlkxoIVq9Upc9PW70fXdTTNyumzZ8jJ2c+IhFsbVabS1Ce4O/0ONiyPZG1zXRe4uVdFT2PD8iF87XQMdz44mlepPTZNrQ/Vvz+6lq22e+DEQudlG77neosOoECNFcLa6YRd5e2cEr/hVAlbbjuAxWksc2RyGwfp6Iw1bLNfsHuXsKwFS3ikTEOxGiN+BJvg5xqVb0p0Bl0NoQGgKMZsF7qmU61BgAmKK3QKL+g8u9PKL37U0FH4+KiGWTFyUFDAZLVwtMw2PFezckr4zbT9KO5dwsgZo536whaz+S/wVubndSvKM56gn+vJnzaTkSxkW+b02nW/+ARf5MHt73/Otm7YfvxmMrNfS95YFUwqnKtQmPUOvPgQjB1qBIZWTcGkgEXXuNocyBvdbuC2H77GGqJgOlpN+zdPYS6oQm+nEhBgIkhVqK620juiA8/+1xDaBTfD5WevELjcnGoTtt8w9n1xGjMffJiZGPvulqRoWFy/NSD3vaXsjJ7GH6/QgASAbkO4PRpezdjH1LjafWp03RrL5Ct533jKqXLsfE81fmSj6yxqnKvRPPP+5457QmnqE9z94GgOu3uA4bJs7qIl3v8+fsjIf/qUr4vH1d5Li783goP0XZSOtwcr+/giDZIX1/72uR6b3EWjeTQRtw81nB8ilaYu4WvnQqTNZOThaWzI/NzpN+BhlkU6Hbe9f+eLpDVsW173AeDdiyLZ9mQsA5/8nG1Ptv08Ck9cdF843+uX1w0uR7oGp7Zrbajz9Wf7DRh52PcB38/nfibAHICmWbg2IgIAs7n297BD+1AmPnAf58+fJzAggB+LitiYthmLxeK0Fh1N01FUlcCAQM6c/bmJpfqUVxL7Mjnzc6YC9nqI63Xh6f2qNhfX9htMMZsX7QK6MWb554y5WE5Jo+tD+1ibfgcbMt9wnAu5i0bz6INL6OUSXKXMGG3UeTO7XXQ5b3IMYKdAlVXBql0xOSU/cTgPkkc5XYjdxjHVcbEWctS1n3jc9Ba9OV6o0QhQdBTFRPtAlVMVGo/9q4bkLTU8/IWFx/5VzYu7ayipArOqoCoKVZpChQXOVuusPqSx5qAVi64QYgaTScGkKJjQOV/jhaTKvX/n1bxonnnB6UYYN523xkHKX9IoBYyLr+4J3nn8IySTx+Fi1xWO5S3HjbIbY343FvLyYMaztRdst3FMHgc703fZ1t8SFGNurACF8iqFp1fDX9IVdF3BpOpYNGNYZqumkRDUkRd6X49SUEHH5acwH6tGCzU5kig1Tae6xsrD4wZwfa9OWK1NPC4NBCQUp7EqDZIXO+37buP444xodi7+O7nYj8MmVqU6Hwij8jI0acgV3hJgC9rSMsl1vGbrujUu0e0Ne+fihxmZONrpvyVOn73y5L5nnJd1Hh7ETWfDjLoBiXGu1n9C13n8Gy73EmDvEltloO6yA5+88lpJAFv+Ux5f7Ky9hnMzNjF03FiG5n2P49W9maQwltttv2eOBw9Ox2bgkwvr3g+K03jFJSAB6Dx+uksFaixvOVeG4x7gmWiXnKy46S4PkWKZOCMaDhe24H289bNfU3UDilimvj+NoXlLWbvX/loxm/+yqX6rSLdxLFw8FtLeZnO939+WZc8bCQ0NpUOHUGpqaqiqqqKmpoYaiwXVpBI9oD9D4m8mNnYQSXeMpmuXcMwBgbY1KJhMAXQIDaVdcLBjFLQmyYPb33e+l3RjzPL614Wn96viw66/F90Y86SnreyNrQ/FMnV53W0MfGgaQ/meo67H3OX+bCy3iS/20mJ0jBG4g01w/IzCvmN+1lLiPBxf7ThGzeEa+kXDq+6e0AN0i6QXebzawlGiswBFMeYaQUfTIdikoOk6R87rFJyHSit0CIQH++mEBwMoBKgQaFK4KkAlxAQoxn7TjN5dqCjo6F6Z1T03YxOMW1hvX3brFw1pxg+ia5cC5yGGhxYWQ5zTh10re936MhToFenrzvu2kT40nQAThAQqLE3V+Spf4bn74bpuRqtJjdUYtjnxeDuW/u9plKNV6O1MRuuXrR+srsM14e147L4bjSc8TTrB97HMXUCC7Ym+m9aOzpF9wXZzGtjNyJ141PmJqq3y8pavR5HygPfuFYbOQ+9gKE5duOxdt37n/gmjP3SLuFze24cuT+ad2M9BO+NcvYM/utl1ri0BuRmbWmU+j/f2s+0aPvwT0A1jv0dz+/uJHE6b6Th3Swu/h+g7MHab/di4Vo6M38gU27o8bhWsF6R3o1c/bAFHbJ1tuHb1hb51fydaEW/ff+pr+Jqq17JbvIsv8qK5/QU3F0pcIsls4oudxYzx4f1K03Q0TePcuTJembewznsBAQF0vvpq+vbtQ+K/jaBXr0hUVeU/J01kQ9omSkpPo6Bw7bU9iB98Ex9tSOX8hYom/p4C0Xe4ube4uS48vF916xcNixvZs6Op9SE33eZ7FQNOH6/zkB5s9WA46lo38zINY57SC1Xw1yyzfwUlimKrUINjpIXmudyN5rJei0bzqEv/PUMsUzPX0O/xh3k00TiQLT3HQMdghdPVCqpmMZqvFJUABQLNCirG8L8dAxTMKui6gqIYlV2TbcQn3babVEXBpCpG3oMCqCY6BTZ3S0kxRw8DeTMZmebu/b62/9v7PxpNnQu71b52tJlL5D21Q0RqmhHZXxWssOMA/GaxwkP/pnP/SOjcQWN1aj6v/t8erCerMbczo9iiQx0IMKv8VFrOU7+9iW7hVzkS9xorZcZM6j5NqVV8OA/y8rg7cambT9Y+qXZb6Ru3sFU8dfbevcLG5Ye+LXbd8to+LC7kKNDLk0UP5wF3eLKkcc/pF9nqKrHePFcHjhoLM2zdMPdmkhJ9Bxu6xdJrHDyasY+pcdfwdXoeQ5OeNfab7djstOcruOpn/K/4cJ5TINM0jj7u4xayLTPW6bVmWLmPeP3+4+oyril7F77bvVeaJrO3bOi6Tk2Npc7EhxaLhR+PH+fETz/xzTd7eXL6H+jdK5J+/a5j1oypXLhwAYvFQseOHfku18hNMZnMTsfBezy/XxmtJ9sije6MIxdTJ4/KewV0zi/93Knrtru6gO/ZpwPSNCOPuqBE9a+gRNcVFF1DUU3GqAuKiq5bLv1BDxn9NXH0e63bt9LWzw973oPR366lnn5eH6ay96wK1cZQs8aQsrbEEF0zZpdVwDHsBMbcI2YVzIqCYgJ0+zCzOqpJNebCCFS5vlNzl9b2NMxdorST3EUzSWmJC7GF2J/EWDXoEAIXKnWWpupk5KiEaCf55LMcKsvPExSgo1k0FMVI2lNVnXPnqxk8sAe/vedGx824KTPQJi9eQ7+/1O/vCrYnNNF3XHq/xz3AM9EP256a/dTwkzg/5O17haML1+JMcp+8hqPpeTDukVYRsHnKa/vQ9sTNo0X7RcNhj5Y07jmtkFfP1W59HS16ZGxiaNIaOgOdR42FvxRSWlxY96m57dhcaiALz4/LJTTQDay18/79x8VlXFPGOfH9pZfzobBOHamurrKNuEW9rleKoqBrVsorKkjd9AlTf///jPnBgKuuugpd17FarRwtPIaiqNRYaujYoaPXyju03zVAI66LuOm2vBBbHlXi914clKOYzS+67z3hr+zBva6DpisEmvwup0QD1Yyl6mfKTmzj1E+lVJ34gMoT7wOm5tuMvW9zA31a7f0Ddx7+qfm2eQnDuiqYzUYCu9lkBBsBJgWTohFgVjCbVcyq85wZxgR8ASbjKXyAyUjIDjCBqmqYTbbPmxVu7dr8T3CMblqZl99vfm+m+yd0fqr2ZmmE9LoOiqJj1Yxj1PEqhQPHdHYXdiXyxglERo0mOLQXAUEdUVQzqmoCNZjQ8P68MmsM3TqHYLHimKuk8boxZvkanonexKMu+QudI/tC3qd8fcl+w0bFe2f6LnJT3yYlehoTW03Fwfv3CqML1ya+SLV13XJt7m71vLUPbV0e3Mz1kptRt0vBxc5Vo7tWbZeKRt9zfM6L56qtRe9oYZrRdcueF9mtL0PzPuXrnd+zs063lIaPjTPP7yGNYcvPatVaqK7icJHjVuxyf7J1R3fONXLYm0mKj+dZ0nWdQYNu4OqwMEwms9vfQXt3Z0VVKS7+iZoaCyZVdUyaaAQlGt98uxdVVQnvfDWDBkU3La/E3flu27f2blOXc7+qy5b74y63w8uMVn4/5phIGkD1r6BE13UU1Ux1RTHVFSdpH34zwe3CKT/2XhOfQuxj2SLni9l2U7R3BShOY5m7hF9bdNwSEroodDSBalYxKwpmVUVRdFtSu44JY4hgq65j1YzWFAWjq5aKhgoEqMaBDVBVI8ndrNLJDAldmr+89kTpRx9PqxvY7V3CMluiVLd+0S4X8D6WufRz9HdGPoi9y5zRbc7424jsNV0hJEghtJ0J1RzMVV2uJ+KGf6d79Hi6Xf9Lru7zS7r2H8///ved3BEfgqbpmE3GDMBNTsxzSsSrE5jEPcAz0UaOVJ0KXL3z3FbxzvuUVel5rSrB3Xv3Cie2Cl/KYiMxuPUEbJ7x3j60JWamzWSm8/m2d4lLTgG2wTHyePXBJ+ok35amPmEktTsNpNF5/LNug/DcRf49qIB3z1X7g4VPOepcIeo2hNuj8/gi/XuX67qBY4PLfmzwuCy5vCRp2xN+58p0aerLdYe0BTwNlvyFd4+pu33RjTEvTGNo2kxG1qnL1OYW1rZExTJ18Vh2Ln647jEuTmPmjE0MdU6W9gFN1+nYoSMDb4g2up67/A4a+1bFZDZhqTGS3i224YCN2dxVVFXl08+/4GjhMWpqqokeEEXHDh3RmvSbmserLzrXZ2z71vnefxn3K9f7khEc9KWX4xq9SPDYKLbWZOcHN7aWSn+l2+a6VFV7RyDNv7pvGRVAxXZSmgjpPIjqszlo5081ffbrNJf8B5cmrqOLbf3+bFo6cfW6DnBbN51PS1X0Mh0r9otTwcgq0Qk0K7QzKZhtD2ICVJ0Ak2q0jtiawIxuXrZ+eVep3Bauc10Hb/R1rc3DqZO7ED2NDcuNPzuPf4O3Dtfm8Rhjfi+EVpRTous6gQEKZlWnohpCghTMJh1NU2wT/xhTkmrYIn3N6K5lDmxPjdKe8Ktgzq9g/FAdiwYmR2BD089pwDgOxj59NHGTrZuEUw5VonMQOJa3MsfV/Xi3cUwet9R2Q209GcRevVc42Lpw5bWugM1TXt2HcdPZtpja/tRg3HMXw8gZdbuWDHzyczb0M4bUfNXxqrv5ARo4r8ctZFvTSutV3j5XOw+9g6GLl8KMZ+sEH7ckRfPq4jySf+dyXcdNZ9v7fY3hYV1/85wWc3tcoqexYfzllM54Qnz0wdrf36Ez1rBhxssuOSVGsPTqDNtyft4FxbvHtIF90W0cCzMjjSGAneoydYb9tWvgGPtDNzqTLffjnrvHsnP3HiqtlXUCE1VV+beE4dw+6hdYrVaCgoIIMJuxWq2OeUx27v6Gjamb0TSNoKAg7r17XJ11N0r0NDb87nvuThxd+5qb89Dz+9UmN7+/zssYo9Ddbat7Nkedc+CTa3jmcG1uNNHT2PD+NF7x05ySdsGgV5ejm9sZs7vroOhNf1zbMK2Gkp3jaR92PcFhN6JZKmzzbbin6xqKKYSKM99x4XQuXfrdR+XZ/Zw/fYjwW1JB8asYqtkVnNN55js4c0EHi2b0tVMcqdaous6dPRUGhSlc30kh7ajOmkMaV4coWK2gK0YFWVUUlACFTiEKrw6CPl4JSq4M9qvjqwM6b2yCfUfAYtEJCVIJMBuTW9pHX9E0YxSu8xU6HdrB4L46j42Bm/spji5b9kG5/Wki9/oTq/mA3CuaTvZhy5D93PbIMW1RRouHws5d3/B/q/6Kpmlomoau65hMJu771T3ceUf9VP3zFy6w9Z/b+HCDEZWZTCb+a/J/MnTIzY51Nkbt5IltI/+1Nfk8u5xPc02gW2yTUXuTrYuK/UQxur9c7KRxfV8xRlRwJHi3XZpuBA+P9NZZ8r2KXmEbRtaexwBoiso/jmisL9DpEAgBik6nYBO6DqrJ6M6lYEy0qAQqPNJbo08HFU03kuLF5TOS8ODWaIjto5D+jU7WfoXvjsKJs3Ch0sgtserQPkjh2nAY1Efh9hgYHWefnwRMqr3PpJ8dCMecJj5+Kin3iqaTfdgyZD+3PXJMW5QxmqXO0CE3c/p0Kev+sQEdHC0hObn76do1nK5dwtGBklOlHD9RzJ5vvqXw2I9ouvFA8Fd3j2PokJvRtKYNHCN8Z3RMO0bHAAQB3g5KAEUNAEzGQMQo6Be9YO3vm4wnDYqKjgq6FaODjDcSyPyDahuFYHSEws81OquPKWhVYNKMPpi6ogIaXUwqugIWDay6TqBtlyi60TXIoiqYghQmXaszuocEJM1BUUDTFNoF69w7XOHuYXC81Jjl/dTPUGOBADN06QBh7SHC9qhFc+ovqdubJv3sWPjTDO5yr2g62YctQ/Zz2yPHtGWpqhEIJt35Szp16sS7a/9OZVUVuq6Tu/8Ahw4dJjS0PbquU3b+AvZgT9M0rgoJYdLEBxh2y5Amj2QpfEvTjTxdey8S7wYlukboVRBkPgI/H/G4aa2dWaddeAj8vJkgFSrb93MMkNuWqYrxxP1XvRTCgnTe+1HhZ03Bcl43+tvZhghWgCATxtMdzTY5n6IQ0F6hswoTe0LiNQpWHUxtfae1ENU2P4ymg0nV6dml9iJypel1W0f8MhixT2TmL0M2y72i6WQftgzZz22PHFOfsE8sPOyWIURH92f9h6kc/v4Hiot/AkWlvLIaYwJjlaqqSnr0iOC6Pr359b3j6dihY5O6bAn/oCr2HAVbK6VXc0p0KxUn1ht9xcA+vYZHFEWxzdWhEnD1cMwhHo/S3erZmyYLz8OmYthdChd00Kyg1+i1+1EBNcCYo+QqBeI7w9huENm+dh2i+dlbPVxDEvu/jWGba/NR5DB4QO4VTSf7sGXIfm575Jj6lHNwcf7CBfbuzebnc+cckwwrCnTq2JG4uBjaX3VVvc+ItsO7QYloNA0c4zUfPQ/fnIXss3C8DM7XGIesfYBCRHuIDYObO0Gv9vU/K7zD3vrhevX4a8uIEEII4c80TbvkzOyeLCNaLwlKhBBCCCGEED4l4aYQQgghhBDCpyQoEUIIIYQQQviUBCVCCCGEEEIIn5KgRAghhBBCCOFTEpQIIYQQQgghfEqCEiGEEEIIIYRPSVAihBBCCCGE8CkJSoQQQgghhBA+JUGJEEIItRwOYAAAIABJREFUIYQQwqckKBFCCCGEEEL4lAQlQgghhBBCCJ+SoEQIIYQQQgjhUxKUCCGEEEIIIXxKghIhhBBCCCGET5kPf/+Dr8sghBBCCCGEuIJJS4kQQgghhBDCpxRd13VfF0IIIYQQQghx5ZKWEiGEEEIIIYRPSVAihBBCCCGE8CkJSoQQQgghhBA+JUGJEEIIIYQQwqckKBFCCCGEEEL4lAQlQgghhBBCCJ+SoEQIIYQQQgjhUxKUCCGEEEIIIXxKghIhhBBCCCGET0lQIoQQQgghhPApCUqEEEIIIYQQPiVBiRBCCCGEEMKnJCgRQgghhBBC+JQEJUIIIYQQQgifkqBECCGEEEII4VMSlAghhBBCCCF8SoISIYQQQgghhE9JUCKEEEIIIYTwKQlKhBBCCCGEED4lQYkQQgghhBDCpyQoEUIIIYQQQviUBCVCCCGEEEIIn5KgRAghhBBCCOFTEpQIIYQQQgghfEqCEiGEEEIIIYRPSVAihBBCCCGE8CkJSoQQQgghhBA+JUGJEEIIIYQQwqckKBFCCCGEEEL4lAQlQgghhBBCCJ+SoEQIIYQQQgjhUxKUCCGEEEIIIXxKghIhhBBCCCGET0lQIoQQQgghhPApCUqEEEIIIYQQPiVBiRBCCCGEEMKnJCgRQgghhBBC+JQEJUIIIYQQQgifkqBECCGEEEII4VMSlAghhBBCCCF8SoISIYQQQgghhE9JUCKEaDmWSiotzb1Sb6xTCCGEEC3J3GxrOltMsbkb3do3z+q+fElh+Avu3pnLDv1Zbm2ezTTRt7x5xyw+dPfWuNf54ombWrpAl634/V/R/SG334B73zvBPx7s1sIlugzFX/Jt5a3c1NvXBWntGjqPb2Lm6tcZ09hTwFLJ2R/z+Obbb/j2yy/ZvC2DjK8KmPLhGd6+p1PTiuxs75sMv2kW3/a7lVF9buCmX0bT59poom8azqgBzbgdrzpLcXEw3boFX9anCtIW8uEBN28MuJeZ4/q4/9DhzSz8KM/NG9Hc+9QYGvjU5Tv/JS+PnwvPr+TZRD++j1zJjnzIH373Ju7OBoDg+JmsfWUMXr2Kzn7Jyv/bwVnX1y92DvuZhuorfv8bKoSfaXpQYikmY/HveWT2h1Q89jF5y718A/MrlZz9LIMMd2+NrGzpwrQ6lT9+y45DZ9y+133QKKLDG/jg2Tzee2UWzy3YTMWktexY/dDlV6SKNzPrNwv51t17w57l4xdHcXnVw9asofO4E1Ma2QJR/O6v6P4b98Huyvc3M/eeh2iun+qCnB3GcTz8JRmHvyTjM+P1e987wagBzbQRbyrOYOHUR5i1bQwf5/wPYxo67919dO8sZrl7ePPi8IYrdCXfMmv2c27emMvw5gpKLAW89/i9PJdZDJk3kTHjTd6efy99mu8xWMs5/y0fplUy/J5bucyYsa6zBWx+92UWLgtm5peXd5y9o4D3Xvg9b35W3MD7v+fjdS3we36+gM2z3TwUudg57LFKzp51+i2uPEFe3gkq7P8+W8C3h+3h0BkKdn1Jnu2fFQUZfHlYAgshWlKTfiKKMxfy+9/N4sPDthdWTOH3I3ew9sHW8XRD+NbZbXO5vYFWmrlf6jzr+qNtKSZj8Uz+sOg98uy/o+/O5Lm7br38c85yloIGA8q5Fw9Izp/lbGvrLmTuRKdmasX0RLe7JjKFD1np7s2UtXx8+CGm9GuOLZ0l70t359BNDI++REWihY5jcKdO7s8npwc6BQC8yZQnhzcuyPYrBbw3eTgT37VfpMVkLP4V1335e9a+8zoPDWhd4X5BynP8avL/b+/+Q5y49/3xP8+lf6TQC7vQltniQVMsbbwtx4gezHIrGNmea/zs4ZitB0ywYLMWbPSAZvVSE/1jO2u5mliwmxbqbgUlEbSJRb8bOcpG0Esix7Lrob27PVQ2LZWzoQoJVNjAKby/f2R/ZJOZyUyS3ezq8wEDukkmk8lkZl7v9+v9eicAyQLX+wHs2+2EbYWBz/BoFPHPZPQcm/meganzHjgONLMnvYD0h+6S70hJGPInbtiP2pZIA00B45fCSPxQ/F8uk0L6/vz+lZlAopHi9zNAw5pQAHwdxpYjyte9xnMieN2LpZ+zQVRUY1CSR+L9ddj2Wabs71lEXftg3zBUccNRyOdhpO8gN6X2yBRy+XxlV28VqjcGtCxkLvdg3+EQEhUXnCyiBwPoejMC54rF2Zb0x60qqYVLWG8K4ugiJj0+b4dzLzD4mdKDCcRvZ+BZ3Yhb73GklN5D6kL7Wu1XLs736ETkpxhcZcdm/usQPDtLGnSmZc+74bZYkPzAukzPVxnE392ifLN7Jwy3JYHkF0Po320pfj6tHssGcR4fhnd9jS8uJDF4JFH8d3Yc0WNuRI8B5h0y5IMeODdK6t/To1EMngig72QC5VfK9EEZ0R2Vx8ViyVzwwHksXfV56WNOeKQkBvdYlsDxaIIpn0DPYcWmpIXz/SSyaGBY8mseyRuL9Rnshu67iJqtxqCkBfZ3PLB9FkDlaS2B7l19WHfTD+vsWSyNUGs7lBIGjOvDttY+g69RvjFYUMfa8ZsG3vDIaQH/xsatb7kxm9uQU2sBy0bhPe6G3UjqYGHKcGBLRrTAvt0HfBZSfDRxIYnMbk/9PQL3Ukgo/X2XbUm3Dra8ZoX5sfJj6SNehDYn4d/Y/NtAQ34t7yFRMoXJ0nQarR7LBrH31v7azIUQ+hQ+TuZSAO5LKQx8X9kAN+u5HDLnKwOSojh8p5Nwnlj8NNH8//bB7YpC61uak0X0PTtgSiGyq/n9d2aLDVjQo0XBNxlMoqF9JUSkoub0LdNGH8LHh7DuiEJry50AvCftSC6Zbl9a9tZ6ET4eUz7eAGQ/80DenkGwQ+cR9yi72Je2J0QWiYNuhL7V8dRfJyEByjc/NwLYZo+iTdcZSD0FYfRmRLGV3fWGWaN31oSWliafmZ6zQz7nQ+StkML+SSOwPQDb90HYFzHlri6PRxFyOdBzVftW19YbR+zAMukFepxE+IhiyAsAkPZ60aWVgmiyw3Pcgb53ldeRPRlA6M9J+Ncv3t7I3wjA8VafQmOiliyi77Qj/yjR/O9u1Ro4AeXiMgvlXgaTecD69AyWJWqaOsaUmGA9EIZ8ZR0CdyofTR/zIdSxDFv7lpNH40h+M1nXKvLj6v0F+fEUkjfrOxO3vtIOq5H8a1UmWPeH4L/Yjr57So9nEToso+u2DFudN3LSMzxmteQfJGcHk9cui/GbWdWqP/OppSBkMHJNOfEn+s7LiKqtbkcEkxddut55IZk6ZEQORbDlpMKNfDYE9/vrlsf4kkdJBDq3oE/hOlDK9sEwEsumoaqA0U8CCKnGWDb0vFe9Z9a8MwD5dAIBxXNWGoH9YTjSvkXp1ctc6MYW16BKzw2AtQ44TAkkFL/HLBIH18H+cBiJ4/bmFbNZYcY6NDIokWDZvGaucaTFAtsGM1qn/2taYYFFasOa5XHQEi179dVCMVnh+1jGkE0pjSuNwIEQ7Df8sD1nQkuHHXYDq1YfsGaGrcOMZw1tqBkty7HqSzX349hib0xSnJLkh11IfljfOhpaueQ5GwInfBhUbF0GcK8Pvk+66s7Hb1/VVseradHcTyJad3C00Cwwq6aNmmA/FoHv/BbFm99sWREHpfK/GbUm73QEoZMp5ccyKn9HCpGTIcx/VLtMcOG7QXg2dyNaJRfItn8IkWbezBp1P4KASq8sAEh7A/BUGbMEADDZ4DnsRECloAfu9CBwxomhPQsZeuaRPNYF94dJ9ZQtyYXI5QhciMJtc6t+n+mPtsDyrYz4F37YmlI9TIJ5O4DLZfcBK6xwWObO2y2rrTDPHmytML8CjJ9PIL/dC8cKpaIfWSTPJvFsh8EiBkTUUHXfqps2+hA6GkP7hwotlncC8H1cTOPyXh+G18B61ecp8SB0fanMU0KLzdTRg/CuCLpU8tbTRwKI7NDI8yaFqlM5qNWVmMrnkZ+5gJta0Oysp1KZm9G6UvCktUEET5T+JYeRaB+iCq3a1l1+uN9orXxg9qUjiHwUVUglq9J88pwdgc+9iPwxrHDDOL9wiGr5XyXXwui5pvO5sxIIHy5PNVIvE5y5vA9uZ7hqKpBt/xAipxs4/8mCyyB6pFt5rBIAwAH5oP7xa9LOAIKn4+hR6UlKvLcPg5sX6Jz1KI2+d50IaKbV2SBfHoRrFQC4MHg5g+z2AJIqL8leDaD9jRTkaDPmnzHDFReY6+csIHsnguDxcVh2+8rKLBeQvRPH4Ol9cF8YLw5Wz9ngPKHQPHovgp53ezAKQHrdhX1H9sHVaYO5InjJIHEyXtHDq9Y4kLnWj9CD+ecNy1YfcjmVu6FfCyjABJPBO7PU8VZsO6nwQIfEsTC0rDSg/8AE219keM9sQ7j8JCbZ0b567tRtpAJX46pvLYH8cWogCc5jMhzn1W4aEug+EsW2i42bB6NiCypuZo3LfRNB33m1mkNWuD5wY53GPbBhr83tDf1Vp+LofiOO7un/FXu9GrhNdRlF/NP6RgWZO33wdZb+JYvoXeWgxLx1H3xaPX53+tDzUW3b0dIZQHhXTDnQXm1C/lEeWL2U+hh0tLxPs31QJd3neTsCSWMNVka1GbzZz5zvgfuS+uPW3gDchtZphbfXh6BaD+90cZg1N/x1p56WylzuQff7IdXgosgG+XZiXpq1aaMfQ5eBbRqBCbIJBOxtGNofwWCvCxYDh6d6g2OZsmIx83rdf80ifWkQ/cf7Ef22uJGRg+0YPecsnve/G8S2zu6Kao3ZkwGEXSn45vVy5RE/3TPboJD9NoqAK4oAJFh2y4h96oFldvdkMXq4R3fRntHzfRUNFfKbPjjK70kKWaQvDyJ4LAnHtWGDAWoGebUiMGvNYL8/LSuiQSajTgFgepGE/UBEjOVKn5ES8uzji7jsiIjJRn3IChqfqTe1YO86Ky0v/v40uDij6nt//jEzf5HTWh98SqR6rRrvKwnvlZzWCsTUdV9N29woWp8dcIrITwv33qneer7LSRHZsdjHkSwqfk2jQWFt+DlhQgx0KL+m2vGk/ltU2HYlmYhwlh3D5efQWr+3hu77f42J/k5Jx+skYT+eElN6PvtSUvE9lC2SVww9rGXFOTG0V3u/2XobtL8mh0Vwh7n6dyTZhXxb/bieGg0Kh6TjGJHswhcdEbl/6du8+s4/QojRfmFT3C5JuKIT0++isb/Lf/+q5xJJuC6Wnynqv4+Zd22bTIlIr0tYSj5P1XNN5R4VfpX3sn8+Uf3lREvIv6FBpJ0BBDcC0mYfIt+MY/iUsdYTIv1MsO2V4VVtuM4ifCyItErJVQDIP1Id7kk1ckYnIYSofUnLOt+pgOTFoEKqlATflUnkcjnt5XOnSi9aFlmVMSptLyzwyWyVC4FT00mpkgNycnRpnkOfscCx016lF1KC6/Mkhj5YLoPapz1Oo2+nW2MQtQTX6UCNM7G3wHE4BKfGM9LHnPBcqOO89GsWyZNdeLltC3ouVVmP5MLAzSH4/1P9ADOt9WEoHaneap9NIuRah1ZLF0LXMgtfan1tF3o6lI7A4pxV8QcA0ALHQRkOpddf8iF4YyZnY34vyTw7QpB3LFR/ewHJI2vQ1tYO97GSyYABxL41eAzcH1NNobRZlk/SJBEANCwoAazwXp3EeDII1+tL7UpKT5znHfD1Kl5yiu71wXemtinZ1pmZhVuXx3lkNQLCuj1KIPqRQl7J2h64OyW0tLRUWRbxVnmHWfdYCuveEPo/iGBsfKgJufr6mXcOIt6rNqrPBv/1cURmJtt7nETfwSg0ivwtEQWkP/YpVpKcVe9N6ioXgp9rnLOQRdTlRt8do9Pd5TF+uQ9dljZsORxXr641Tdrsx/A3EXhe0/E7WOXCwN0UZD3H4/04ehwvw/KGG32XR8vGrTWSBGevSoCXjcJ7PFEMjFa7EehVqmuWRehYGKMACnfCkM8qrciBgeMLWfnOBLO5TTGdL3tzpOp3WCo/Pqoyts6FdRxbSctMA4MSwPS8tHyqq5Qp5PPIG17UBwhjKlfD+koWPdeljf76WqaFwGRUve2u7pZvIRpXeUuBeVcAskYFnGx63NDJnRojfzOAtn//Ddre2IZ9xwYRv5dBoYE3KKPngxhU+LvjL84FKq0qVR9996vqmUA/kw3e4+q9I7ajlb+vlNrEgL2pGnqkZKQqnq9UVMQE29EIIrvKftuSCwPjScgdMx8gi/j7bgQ+dmONZQt6Li/dX2P1Gc6diJyo/ybVvKcfA1u1npFGYLsH0R/0rC2PzLUQul5pxRpnAHG1cQUlbPtjSF2XYTfS29Nig/96CrED1XrIirLfRhFwrkPrb7eg+5MExh8ZeC+9SnsWy9//Mw+C/wsAJth291QEL+atXvQfc8KMLOKnAoq9JLZT8oIXSzFbVfbnjQTSD/SupYCR22Hlh9auQ83ta4W5e5FGnruJqlnEQrk2+IWAX+ez1QfDyUgpXijrkUX8vTbNwY2GfbQNrTUOfAUaXEr3SWWywdvrRX9Z5SJpsw+h04Enq8fuVzTs12pqscPeUfqXKWRupBUCuPk1/Csr0SiZu0hmv00g/G0C4Q+n19UZQOSiF9Z6OioeJxE5oXTzaIFpPI6QUgWaUs+3w7Pbptx48iCDEcUXtVe9uGd/0jfjypPDDFdvCEM3iuVjpc1+RC7Ov9nNXPDBOzN4P5tEyPky4juCGDjtg30Jndqqz3AuwRUNTlenqpcZntMDiL+iUd0rG4V7pxnSVZXgYXqQd/CYvkCkyAZvdBDBnZbaUuqeMcN5ahjWN/UMnp+WTWLwL0kM/kWCpbMLvt4gPGsb10tp3RuCfK593hww5h0ygke8cM40Vq1woqfXivixSdj3BOA76IbjteKvP391H3xK1/yNMsJ71Zo3lKY3UDt/AtLrdqwpG2k+Oz3B6za4AYQqXhVH8m4erhV6rl+jSJ9XfkRyttfQSJPH6CcedP2lpMdNssB1JILB/ctk0lNa1p7E2TvoKdLS6YO8NYzuawAkO3yn+hHYaanaYzf5g9pcDUtP5oIb7Qez8HwRgby1/rs56/5hDO8v/Usafb9pV6go047AuRhc8+bZKMB+eBjDeyvX2/pKC9QvklnkXreUVLFR8LwVwRNBhQcscy2K90dVbojGET/ZU31StR0RuHezoHhDrHIh/HkKo5fbMfS5C+aSq0nhjvKNfuZSD7ZcisGXiCPYgGO5XoU7fXC8qTTP1hxpVxihnSp9JLWUcF3tQX80iXatQOhOH7Z0PovUNT9spSeze2G0b92HtJ6gYJq02YfwF0E4GxBUmbcHMWyzI+DyoO+m3o3IYvwu0DY9/4ftqIA4WvLwgyi6fqswlqc3BXG05Ld6P4HQyfnBf+4VC3Cv+DfLdh/cG0zI3BhEqHRs2KQZjv1dsP+2gPGrgxi/ChTLfyuV4QYsv80h+UloXkqUZbsPjtUAYK2c3iCfwL7WbVDqr2g/ElFvXDStg30vEPqs8qHBq0kEtzurZ57cSyGm8jW4NxoNSQoY/ciBdeXz82THEf3LOmR+HUHqwGJM80lPM+NByZ0+/MZWvSDeTEt/9kIX2tQmjqpJAO2/qW3CQDkt4N/YwE2hJcAM9wE/4q+tQfCY/oHBhV8NXNWbKHPBPXvz0uewIn0gjIETznk3gIvLBGm9RhrHnST6FXetBE9Hu3ZL22oHfIe0cu4BrG1HlwSMLo+vDzBVfmLdpdGfUZrkbWlp6ezHWGfZHx+nIe/VuNGX2uF4U0L+uyRGJhd4A0u0vWGHpaTnoXAvhK7t2gEJNsqIf6pWGAHInO3Cy8cK8Bzxwb/LUTJhnzbzThmha0m4VeZbAgDcCaB96xSGS3tM1noQ2jOoPC+Yks0+hI460JJJIjnd9N36SjusuicIzGP85gjmf00m2I9GsKYjjMCR6mNYAMB5qtYCASUejaLnsPq1f/xyCIHLao/GNeadKVvPpRB6ynpQ5DdngpJKhbtJxYCkuha0b/UCnym8+mwCyRNOOKvss9GbEeVB+vDCvsFgv0Y+iUGNCUPTBweR2N0PxxOUgEBLkOF6XTrL0M6U79Mufbq4i3qZ2WaUOdVZ/nCBaX0/C70NtZcErp96WcqFLcc7Q09J4ImoS0hKj2/0ish4I4utqpW5NL4vRk6olGpeGxQjDdnWKTF8qI7fllaJ8Luy8v7WUdZX9fusKA1uoKSojrLiqsex1mvrLV+saUJEdmmVvrUJOT2lve0LtJSeU/SVu7WJ4KjGR304JLzz1mEWjr39Yvgnnb/NX1JC3qhj2zd6RSxT+rph4auy7dJmp3CsVX7M2Hm9yrlBT/nhjVV++z+plGEuP4abWAJf63qU6lU/3qvu64cx4VF5rSderTTwiAiqfMc1TYVQdf9KQr5rdKVExjB9a9lRarmqY20aZXHy4ykkbzaqWaQN6zZXT6taHAVM/dLsbdA2dtYN3zGV9I47YbgtI0jVkyNeo8zVEOLfqT2aw0hUpQW3LYPkyVAdM7Bb4DzkgBkmrHvTC5ysrW1S06+oOhmgmsns0h3EvXjySH/o1mz9t/WG4NvY3Mz0/P/2oWuHxsSAAIrjSCJlk+yVKiD9WaBswuAMEp/tQ+KzfTDvkCEf8cK1VuOM95wN/gsRjNmK43JU3Qmjy1ZA7JuBYsv5c3YEPvci8keF9KPZFNZWJP4cR0JhItCGkuzwXZyA+2YI3vd6FMa4WCF/7F2gAhRLQRrJT+votn3eDsduYFChAtjgmRj82z3qxRXuJRFR+X6d2/UVJZi/LRLsgMY52g7LCtUHiRqCQUlVHvQnXbAsxKq/i2LL+0p1hLSMI27fontG2XokP+xC8sNGrW0hChTUKo+sruo2zRJHX9UZj9MIu9YgcWMAQ6c8izafRfZeD3p0zQZf5loYPdfqeWcZ7YccMANoeaMdToQRB2DeaIf539UGmpph6zDj2dI/zQweLWQxmh5DrvSx79QCiwxGbibVK+0BGB+vrfz0k6OA9IcOtGtUsJJ2RRA52uy5S/IYSQxVDUgcpxIYVBtHAgD3I5CPqX/nmUtDyBz0Vd+cVS4MXs4gY9NKI7PBfy44L5WnpTOA8K4YumYDQAn2AyH0z6awqn9AQ+Nf8jldDWDSZh9i426kzwcRODI3EF7aK8Pb5CB0Qammq87IYfxMEJFVgZKqdKVaYN/uBc4qNLJcCyN+z6MSGKvN1QQAHrgV53GpYvU2eHdJSKo0Kkh73UuqQAU9mRY8KJF2xiB2LvS7LCQz1m22L8zN9LOa2cy0YKaK1awUrYO56a1BTgQ/tyBxrK9qlZvM2W6suZ3GwOUgPE9StTEtqyxoXwvETTJiN/2wmtQG6nsQuq4SCD9KQrZrTZRXahD77EYbD54uVUvqbpQR/3Qh533QqwX24xFEHrSr9ujYeuOIHdCqNJRF9IhG9SwA1qP6e4RMG/2IRMdUBr7b4L+eULihnZ6r47wbo1t9kE+UVxvMIKNSTXLNbw3cWT7O6++Vf0aCbXcQwzt7kPzEh32nCggcdix87/haF/yudWite0UZJA+HdY89AQpIXunX7F1NHdsG+/0MskghfyWC/s7KX0BLhxN+KYy+ihWNIvh5Ap5PFfbhgzjCSnM1AcBep7GSz7MkOD9NoL/QhX1lk2+adw9g6MQifJf01FvknpIC8rom4GgU0+JOlEbLRBYZtQGRa01Louxh21YZw9vtCPzZXb3Kzf1BdL+RRPqLIQR3NzZFbio7juTtJBI3xtHe24+26i9ZBBZYO2yQnb76ygsvAutz9W9g9moP3J8ot4lOqXTuSBcD2HJbZYW/qPUIDcL3VnJ+z9KM132InHIopoSUFmNQZkf/WT9sS2bQvhmuT+PIfN9eMVmibf9Q1d6c/FVZuZTsjLV+hA8b6xEy7xxE/H6mrKfJDM/FiEoLO4q9LD/Z0bJC4VspTM3vBWw4i3rjjUmC/VAEYwfQoDuM6fsGtZTbV7Zh3yGX8XSlCmkUjAQl+STiaoHBtOz9md9aGuE/tiMXTSFS3gNnsqProBV9hyt/49nPwogddFTMmTJ6IajSoCLBv8Ne+zXgOSu8Fyfg/i6NZDqFSZMF66ztsL3GcIQWh/FTxnofcrmSgnjpIFodffpe+yAOj1Lpv4WyI4LJi404WdETRSsl4ZW2JXLjDeB5O+Tro2jvdcPzYbLKeIcMBt9dg+TtRqZzxdG9YebX6sQ6tYn6Fp0J696PoH3VEo9IAJil8qNJgvVEEKWFj3PfRNB3XiP963EGyRvGRuNkv00i+62hlwDIIH1DJWBp8Si/4lI3tmgGJADQglaFgKRyvhx9Jr9JYlzxDRXS9Uq3ovRq95wN/gsxZDq6MDg9DsK8O4bIaYd2b87jJOT3lEvJFlnh/yRQQwBmgu1oEinYpwMTCa7oMAZ2aPctKQYkAPAoq1IVy2msJ/hBRuV6rbaXS9QbkJzzYcvNPMZujiMLJyLRdXWusLHyN+MGq25lEXW1A7+mENk1/3u1drhhw6hCCl8CgVMJdJX2ljyKI6wQwAAA1vaga3P958WW12xwvrY0kq3p6WL8tPFMWe9Dq46TE9FS8sM4VGcpecO8tILYZyQ4eoeRsu6D2xnWLl8Ko+lcBeR/GMfIaFJ9fyxRLauanwhUGzMch3woLXycvZDSDkqWqMylbmz586CukrBKKufL0SOL6J/VJrrVSNdTssqJgWsDmHylG7n9Q9UDEhSQPtGDkEYEZj0aRuA/a70pnA5MnunC4Ip+DGiNaalGNZhoM1RmOv9QrflGa4SVtkI+j3x2HGOTk8h8ncH46KDy+ed+GsnSgfNv+iGEH0rFXsZuJjFW8xbNsSWHMTz7v1assVkhKX6doxjsrSWlM4voO+1AIYnBPSVFStZ60LO7B10KA96zn8kIv2uHf70JxQILMtTe2XnY/QQXFaCnAQe601Mn+/2IygBBwLkPLAknAAAgAElEQVR6ad7smrf3Izluxb7O7tmWXVUl6Vz9u8uqcz1IIvx5HMn/TSJ1c9xwtSnbgRxy5TeS3w3CYeupDJgkL2JpGXbV2GgEYdsWBJSqee2PYbLXXrLtpmJL4f0EQpfLZ0/PqARVKUROhioea3nTA0/Txw0tZwWMn/HA/l61HpJlYLUH/XfXoXW9tWrKS+HrEHxa84NslLXTtvJZZJ+RIGkGBSbYPhiqewxj5vsR5QekNrQZ6EXN3FdrrkggdU+GTbU6mYqv+2DeEKjhuCkd67dYxV6ciPxUPnlsUeFGBMGaK5tlEX2vWOdqLjBpgWOXH9LZPoV9k0bgWASuhAfme2H41AosSH54ty+pJjUiwxiUVDWFXD4P9cK5dcjV0tpkg18I+Bu0CVqTW85MgPlkKWDsblTlMQnrXlm6n9f0mgcDd9fB8o4DPVerXdZL0rlOe2CZuREqZBD/MFx7ad7nWipu3kZvRxR7cKwHPXCu0rgDepDFiEp5YaetHVKLwmurTKA2XwLhw5UZ4s6oG57XzHCcCKK95O+Zmz0IK1UI2+pFcLNWsJrDSLQP0YUuv7ok5JH+qAvOI9XSCZcP83odbcuFUYT2a1fIkj/2qaRt5TF+Qca+gyGMdUSQOrfQA/4LyHyjkiRtkwyMN8hj8nu1IGwUkRuj8K012C4vmdEO1JDCPYbJLLA0urEziHwc0nX8O4/KMJ0JKJR8ziL63j60vzkM72vFv5g2eyBv7UO30jnoWjd6zrbBfkmh8WfmvU7tg33pZ7QSaVoiQYkTA98MoqvG1svJSx6seW+hRqr0YVurzjEztOgyl3sQRg+CeluICikkz6s92AWryqy9S0aLFb4r47Ae64K76jgTIHMtidFHJUHJCjOs0KpFb9DjJCKnlG5cnOjZqX3Dkr0dU7k5caLrzQW++2ixwXOotD06j0SmRzFH3L7dB98erdvILKJ3lYOStgYMdMdzZtg77BV/nsokkVbsNdMeW4FfMkjeUUq60njdTCnl+zHIT1BAok8Box97KwbFl1Kdf+WHOHre9SI0U6zivBvuV8xILmhp5FGk1c5xl7vRbh9H+IsgnKuqrWcco6ozpAOj0SRGD1mNpQs9L9UYkBVQUK2YuLjyV0MI6C1vbvFg8DIqSz5LdsiXYrMBSZEZ7mMywtcCij358Xe3qQdza2X0sJeEngBLJCgBnm1pgVLDqB6FJVPVhRbN43FEj3jg/iQN6bgbQZ1NaIV0EoNqd1Q72rFuWRQZaYG9dwhJ8z5se1crp98G+fIgXKU3HyYzLB0Abuh/N+l1B7q2O2BWuIvKXAgp5thLH3jh1GxkyGDovMoldqsDtkVPryog/0j5kZbnqo2bm8KUSldq2wv1H1BSZxDDneV/HUXIuk651XSHjLhWgY87ffiNTam3SceYjNVd8OzuRkIh9/1JVfg6BO8RrXLHQYTLg4xfs0h+7EX34XjF7zN9zImetePo71ygk829FGIaUWP2Zghd5jg81ar1VVkP7gURu+mF1cjAatOzNZbuNRmbX2WhVC10UKmi5LPkwsDNQXheq9xvpo0eBHb1l8w/o4cEb68XNvaS0BNgKfzMAWQw9GkIkzUWGs998zTPpqw2RwOA3hTE0YWtoJH+8DdoV5xMb+EmS8x/O4ie7XNjK7Kj48jCqiMsySL+mVLObpG9w7Y0sgN0McGyewAjb1jg7uxBonJqZ7iiEfgrWm9b0bYaOoMSJwa+j1WUo5z1OInwMaUCmg7I79o1W4ILNwdVWxudu7YtgfksjMgiayDIawiN2Zwlq2UBj+MWOHb6gLOhikdsG21I33nC5l6qmrblwMB5X2VvwYMkwgoBSVEW4fe8aE9H5jcYNMjozYjqmLk5xfTOofN+DEZlOBQOmMzdRJX1ZNF3PoGezU4DKWFmmHcA0CqpPGNPP4bfd2DdqralU9r//mjVuaOUzJZ8TqzD0IV+OFS/dwnOYzIc57XnwZn3il1hBBYqwCVaZEskKBlF9KNRqGX6ExXlkT7pgbv8Yn9pDBlUTzcu/G8/gqoXQwsc1uV1KwwALet9GEqbsW9nF8Il6SW23rjKjNQtaHvFCui4bQGAZzXuBdR7SXxwa6bBZRA5qRIcSl54apmNuG7qvR3m55faBb+A9FX1G8+u1xf2ODa96YBfCs2b7M3Wm0JicxKtbz5JQUkB6ZNaaVsSXNF+5aB9lQvB6BBSauWSs1G4d66B+Uaj528ZRfKc/kpu2Zt92NYWhfN0DIP7Swf7Z5C8pCPJ8+wgYkec6g0XFUxoKZ3Yb7UNzg2tyFxQCIB+uw72tUrHsg2+XA6zExP8msPI+QD2HYxiHIDl0BCSR9r1pcf9EIHbuk85AFi7DubySQjXtqNLAkbnfalWWNeOYlRzTJkJtqMJ5PbryAhZ7YZ8fBAJrd65WU6Eep3LqDGNSNu/NXsDiHTJJhCwW9Cu2PqYxli1ilSFUYQO9Wncio+jZ38f0o/r3M5mWOVE/7URBDuLlyZpV0RzAjjz6vbizcDeICLJMeSmUpCNvuejBEKKvSRA9qNuuD+MY1QlHSpzvkd5MCeKg+MdWrMRb/RDCFG2qG2/jFTFc4VK8Qb13o7Wf18irbQzHiUwqFaBB060Wxc4iJqe7K1IguPUCJJHbfPnAXkCFO6E4NOYpV7aFUZIo2yveecg4r0afcV3AnC+H625pLKSws1YDVWhMoj/ZR0s9h7Ef5j+0704wrp6/xIIfJ6E/imRW2DZOoBYegyTvwiI71OInXAb7hk1tbSgpaUFeJCA/Od2bJkOSABg/KSMwe9MaJl+jvqSQ+KUrNIjoZYSZYVtV9mftnrhderZar0p6iZY94fg11HZzHkuuCC9bUTN8oRdRmplgnlrEMENzd6OOS1KCfxPpTzGLwTgcWnN0ZHE6HgeWK12xq/W4jntTgDO982LUB1nAbRY4buSguXDBFoPaG9/y9Z+iHljFIy2bheQPh1AWDWNIYP4sS7Ej5nhOORH4KAHtuk4oHCnD+531IZrehDY/SRV2bdD0gqwaqI9TwE6Fmc8jnW7F/bDfTBHh+ubT2OpepxEYLtG2tZGGfFPq7VQm2A7EIKcqJw5fkb2vA+BrbbKWb5rotEDCQnm1UDmvnruUfZmZjq4KCAZDersSwWyJwMIu1Lw6SwPbO70NOj8mkHssBuhm+V/TyOw3QOzZnpcAekP3XCrjN1QT4kyYd2bXuDkTEkMCb4Dbqy5013TJ1D1nIQ1rwDQDDCtsKyoMeedaIla+KDk1wzihxMwn/JqVOmww3/RD3uNF/D8zT50fVhPPaEW2Hb7FmT8g3EFZB8UIK1YaikjTZBNIODyoO9m9STe2L1x9Hcqf4OZCx44NVo8573leTfcFguSH1gXsDrOQjHDcdRb/Wl1/+pNMDu88H3dh9A1rXbeDBInu5E4GYB9TwD+d1sxqHGjZzvlhbPhN/E6FaaQU3zAClO1AyE7qTJxW4tm+ltNtOYpAGDfYV+cgHr1NgTvdsG6/kk8T2UQfd+tMUmiVvnfMs/Z4D8/gNQramMEsoi63FhjTiqM/zKmcCOsXhVK8mAg7Ubm8DZ0n1X6zUpwRadb3e9HEDppZOBEGj3Ho3BeXOzGHDM8x4MYvKZQJjcbhXunGdJVWeG+ooD0R9vUrwmSC+Hj6gFnyxvtcCJcrIS1sQfuDhMK1Rq8jPg1g+h7W1QmCC01ij67A7iegNzR+N9hIZ9HAaalM56Hng6iXmlZAKhYnNFJITIx4dssCUAWKSGE+CkinArPBZwi8lPtmzAZdSpuA3ZExKS+NYjILotw9cbEyEP97zv1y5SeZ4nc+LCInIiIEa2nPRwTQ6e9wrEaApJXDOnejpSQFfcpBHpTVV+tuu9mvsNq796r8t4z33mN7+3Y4RRmtc9VvkgOId/OKb7HxBWvsOldz+xiE3Jaz3dbO63PXu/vwTi1Y6j6duRGY0LeYTa4fxWWjbIYqXmXq21/9WNwVj3npjrPa6rHQvnv95eUkDdq7UeHGPhex2dVOWcb2l+G1tvI43lSRHbUfs6pbkqkem0a+1gSruiE4bVORF1C0jr+1/pF6pc6NrvKsWE9MXP1yYnUcXvFtki7YtPXykkR2yWpn5f3e4VD5THnOeP7RQih/vvRcf0Sosq+3egVsUzJk/81IWL7tb5fPef+ERFcWzwWfNeLz1W7Duq5hs6TGxHBTvX9r7yYhaeGY1LZlBiL+or3ITPrX+0Qvnij1k+kbcHGlGQueNBu7pqrz64pj7F0EsmbtS2p8TqnNrwXQfD8OKLHurDuhTascfUhekdhuwt5jN+JY/BwN7a80YZn/z2ApFIy7a8FZO7FEX5/G9a0PYtWyxa4D/sQu1n55Px3CYTf34aXX1iDbX8JI3EfQDaMwFn9gxWfRIlLapVr5jPvHsDY+BD8/1nZUpS50I0tf9RK+1JT7P6P/lD9mU+7lrVO+C9OIPdNDPKOWttJbZA/8cG60A1yv2aRODmXe75UTOmdf+E5C5zvaaS+bHXCvtTn2VniqvWqqheQ0GbeGUJ4l0ay172+OsaXFJD+2KeRnmqDu2MmT6EFtg+GkPyi5DiSfIhMp6JlL/ngVS1H64HnmAzPbuVH4++40XdH/+iSRtEcu3MnjC7bFgRu5FHIJhB4qx1dn6h9v2oVC8tZ0e6UgB0heDsaeNL6IY59W9fpmBi3XAaDrnZsOZase5LnzAUP7K5Q8T5kxv0EQs52uC88zVVOadHUHdaoto4ptJSptigu0KKrpyQnhvYqt0xIr8siNSWEECOiv8Oi2BrjiZe30OdEbLfK9mwdEPPbG6bE8AdqrSIeEdPVW/Jk9pRUXSS7RutNTgwfrWwNNLxslOtrvaz5sy+fnpJyuW+M95w4v6i3Fa56T8lkMiicqyEAnxhWagjNqJ2bvGJIuRNuTh09JVOjQeGQ1M9fSntmajwivBWt4pLwXqm2odPYU6JoKi1r9qpKu5S/D91+GRY+te96+juspRdm6rpP+1y3OyaUjozcdb+wlfYMZCLCpbF91t6UmBJCTCX96u8nuUQko/BmWursKSmaEBGNHp7qiyRcBnp6clf8Ijg69/96e0om4rX06Csco52ySBnI9pj/oYaEV2v9kl/53EnUQKy+dT+G8GfKLRNtf7ZPt95a0d5hUhxAOHi1vHWiBY5dfuV81GthxOcNXDPB/q4Mh+K7D0J+wntLJrO1tbxInTJS3wwjuF2hxfJRGn1/tGBL1dnOJbiiYxg6pNF6eScAZ6+RyjLU8roT/otjGDntgEXna+JHutH9SRLZBZixeSqbROjPL6PN3oP4fQDIIKt0YGQzKrMlt6G15nRtC8wag84zV/fBblWaY2baJTe2vDuI8o5g02su9N8Yw8DukuN/Yw88nKugZoU7fdimNbD9NR8Gex1ozeeRz2cxfkel5/5aFOGTIYTmLQHs+/MWbHH2IaU5DqU4viRkoHpW4U4ftr0T0jjXWSG/51CcR6SlQ0ZyMl6cif5xGn073YiqrsiJnt3Fin6mzR7IW9U+QhTunfuQWPReZjNcnyZmKxAafa0nmkJkl/4esJZOWffAfk35cQy++zJedlbr0Zdg73RUHbOTvRpA+xtbELhWw2Qq340irPV4NoHR74yvlsiQusOa235dEbycFkuwp2RKDB9Sa10py88eDQqrnucJIeZyThVaMj4YFvMbG7S2QU9viUZPyZ5+MZwc1lxiR+2q+89+NFb19f171PZ/tVbLCTHQYfQ7NQvPF2OKrX5C5MRY1Cfsmi2Rc4ttutWvep5+ba2X1TyxPSX1jDFZ7RC+qNr3W8v2Ky/+2wqrqKf3oIbXTpyrMsZg3n5xCjmutF9yYuSUQ0hGekmEEOJuv7B32BWWfu1xb9UsSk+J1nmjtp6SRrVSN2zR2UM7NT6g2bMBQEh7h6r/nn5JCXmzdi+D7dT8I6Nq78xqjxgY19ms3pCekmn/MthjItmF/7rxM0454z0lRq5XkrAfL16vqo5NKlnMO4Ji2MiQlu8HhF1znS4RMzhEhsiouoMSvSk4vutTGkGJXfgvat/81nRjXS0o+X5AddBeZfCgHmg4FNJPJr5wqOwLhUBjNKh6UZwboKjG2A3Z4i3aNwhTaVklyFP5Pjb7RETtIjc5LIIGboRnA5KZbbmrnbaxEAPfl1pQ4q9nO6YmRSoqC9fr9aRPlH7XHtGfNHL1M/YbUAy2P/Wo/l77q52DdL12JqiYmg4katg3qx3CeyIihkYnRK7kcJy4ndJZ0GOBLUJQMnXbr3HeMB6UTCWq3Fw3aSk/R5XL3ZZ13NDqKHzwcFj4NRtloFKEQj3tufS86Y2OaX4OIUSDgpIpMTkaE/17HfoLpAACkIRlp08MxEfERB2pukaCktxoZLoAkL7tc30+fx8aatCAWThPDIkJXXGXVmqkzgCXqE51BiVTYvhQ9R+GtNknhjJiiVXfMtBLMm3khFX5+R3lY0WEEA9jwqOyPyqDGI1xKFUrcS3DoGRqpErvxPyTsv3okJj8l8J6cmMicsjYRcjWm1I8sU58rhZEznwPNeRKa1g6QcmUxkVOfTumHo6JVLxfeDuVx1o1YjHvCIrhn/QEg2pB1VJapn8PkzHhatQ6JYtKj0eDlnlBpo4b3JqDkikxcjEihkoCvdT4pMjlcnPL5JgY/qJKy/LaYA09PeqNTc1drMJ/W+nYz4mR0/oqEzo+1+7hzd2W1cczzS42Id9V+Q1WGYOi93eci6sE9dWCkl8mxVgyIoJ7HcKis4e86rZudArv0QERS46IiZz+hig9QYnx8XY24b2i/B1ORD3Ggi9JZ2W+h8PCrxAwSZ1BMbJA4yuJStUXlFRNxyq7oVyQoGRCPbrXCko0eicqe0nmXqPcSmdX+MFrBBoKF0+tngOlnpg5yzAo0dXKBvVSv/+aFMOnPbpTtWaORcepEY1WO43jCGj4oPfmBSUpIeveb3Pbkfs+JYai/cK/1ylsq/W+vvz7tAv/9cmSQef6vjf7gYgY02qiU/1dKm+Ds1OlcWFRfg8a5wVAYLXZYEvvIi0qg6XnqaOnZOJz9TRS3UuNLbnqvdpNXiSfGC4/5+gMBNSKJAghio05B/QUAqmeujp5UW+rvb04MDwTEZ7SwHezRqPGvKBkSuQmx0QqERH9hzxlAfNCLpKwbLYL517tVKhqQcnYaYPHmOQQwVHtoKhYqEDf+mzHta59FWsWE8mI6D8RFMET/SKSnjTwWqL61BWUTMY9Gickm/CWV0cyGpT8KyWC81rvPMJ3IiiCM8tRr3BonJyk42rtZlo3xVotCuqtanaFVqmp6z7VE52cLn/2hBjYqnaC0qp6sRyDElF1LId5R78YUbnD0H8hnNl/OvOG1SowNbiXRIhmBiX6ejeLy1ylqqo55FWWiu/zX5Ni+IT+uWik3TGVBgatHs/5v7mZ4Kauqm8N+D3krniVn7PaI2KZ4s2GsYB74ZfKKoMK6knfMhJY1rONSqpWxWreIh2qbCCrViVM63w19U2/jt6R4lIthWx6jVXmdYGYH9zo75kqnfekak92tf242SU8W+uYT6micuZ8VXtKDGQHSJ1B1Wtfxd4fHxCeag08dc0BRbS46kzfUploSXIpD3Iz3FOSE0N7az0RScKfVP4lavVKWKuciFO9KjdASilcU8PCr3IBUOqN0brxU7/gLtOgRAiVVj+twexz9A74kzb7xZCBhPvK9UrCdbHxGfvNTN+aOKfzpnxeT6PO3q3y/f+6SwS1xofoGQ+kFRTqudhv9IrIN3NHVLODEsXzwnRAYmi/LNqiszx5XWNKjPTgKSxrZ8q310Y1NbfeZbVtXkqcc69/rlHtRFAMnPJpBmO2/TExofC5VM9/kr3q+Dc9507b/iED5Y+1B5eXBzepo3r2XVnD3VRKyDWk2Zl3yCKSnjv/TKYHhM9wcKJ+LzH7mfSMKdHIziguZuE8PWK8t09zwkW1NECipan+6lu/pIS/9GSx0VscP6KkhvStmm8gNqrlF2v0SOi5eKZl9fz7is9dOQ+J9LpDeE/HxEhG6USh0Yq0uV+MKW7QiOhfyLzyKot6Ko++QafzWv1WO0X/Xb2n5Ckx9rnWxbXGE3zZBVZfa6FxTR1TomtuIYWKTj/F9KWOYDoYSUzo3P9TGpVodFQ/U73Ym4XzxHDFeKSmByXl5wWNoCs3GhPyzoUbt6Nr0TXfk6gzKDHSg1e+NKAQRcUYQLOwddiFvcMpvEdLeudPDIhYaZGD9JiYLB37YmAcwtznVmrYswt/QmuvK/VQ6N0P2r0btg+GazpvxnZX3uwrze2i2lNYuiikOOv+3UoW4eqNiJTWOJbvh/QPitcxVknfQPcpMXJceb9Lm33zGk6MUx5rpNTTRrSU1R+UiJIby42ySGn9rmoZU1K1TJ3CohUYCSHE5LDo31OZU1te9lDZTIueJCydXuH/IiZS45NiSmkgthBCpGVh6/SKYHRYjD2sfnooz282b/WK/sSYyKmtv8nqmTxxxkTUJcybqxw7ipQurpKw7DRYCrHcdBpX3ZOlaWhqUKJnLNhx5WBMO43CLBx7+8XQeI0X19yYGCi7sZF2qaVtaW+XVg9ZLj0wr7V6cZaylueZdCW9qYFTOTGWjIj+o17h1MrDX4BFKTVVUZ3VtyYvugxvm/S6gdKzmqbEyJWIGEqPiUnDgUWdHg4Jb0lAbt4R1DkBXkkDio4xCBWvrRhDV+ylrv3Tl01aqzYOr+o1XS240mi0kyzCsbdfxEYNjn+YyomxxIDwaQT+2mM6i3RX36pIFdSXGaBX7puSyl6SS8QWtYojUf0aEpQIIcTIF0ExXO1EWtNAdx05qDNd5Lt9oj+aUq7UpCD3/dBcioTSoEJFUyL3k0YQUq+pYeFfXb2lZ6loRFAihBCi5v05d2E275BFrK7WppK1RoNVqp7Vp7nVtxRS/qZ/Q55DA2Loe419WJ56JFmEY29QRJJjolH3cpOJ6TEVVSvPlZq5yaq1h2yxjYjgxjrHKv2Sm1+haoEW3ec61flPfPpSKFXHlcz0WkwvO7zCf2LA+A3oElY8HxRL6Bo6dn9JCXmHd37qn16l6bNlKY71mIj7hH21VsrlsPCpfc+7tc/hpZW6zBs9wnc6IobHc405DqZyYiwdEwPzBtLrS100UhK4+F3rKOBRq+nxek69jQlES8hvhBACT7n8t1EMfm+DT2mGcNL2OI+84kzcJrS0mBZpGzIYzbbCunoZzWhdyCOvMVW8qaUFC7n3CvkCTDV+P9mbYcSyZrTb2mFZtUDbmR9HOmuG7TUDa/8hgeiDdrj+c3kcB4XHBZieW6TfCC1xeWSzLZBqmZC8DoU7IfTctiJwwA7pmcV61zzG7+XQtqp17k+mFug6HRWyGP1uCubXzPqeX4/HeWSyBbStlqqf49Sug4qfK4/MfcC8nK5XRIuEQQkRERERETXVvzV7A4iIiIiI6OnGoISIiIiIiJqKQQkRERERETUVgxIiIiIiImoqBiVERERERNRUDEqIiIiIiKipGJQQEREREVFTMSghIiIiIqKmYlBCRERERERNxaCEiIiIiIiaikEJERERERE1FYMSIiIiIiJqKgYlRERERETUVAxKiIiIiIioqRiUEBERERFRUzEoISIiIiKipmJQQkRERERETcWghIiIiIiImopBCRERERERNRWDEiIiIiIiaioGJURERERE1FQMSoiIiIiIqKkYlBARERERUVMxKCEiIiIioqZiUEJERERERE3FoISIiIiIiJqKQQkRERERETUVgxIiIiIiImoqBiVERERERNRUDEqIiIiIiKipGJQQEREREVFTMSghIiIiIqKmYlBCRERERERNxaCEiIiIiIiaikEJERERERE1FYMSIiIiIiJqKgYlRERERETUVM/U8qK//e1vuHXrFh4+fNjo7aEavPDCC9i0aRN+//vfN3tTiIiIiIgMMxyU/O1vf8Pt27fxX//1X1ixYsVCbBMZ9ODBA/z1r38FAAYmRERERLTsGE7funXrFv7whz8wIFlCVqxYgT/84Q+4detWszeFiIiIiMgww0HJw4cPGZAsQStWrGA6HREREREtSxzoTkRERERETcWghIiIiIiImopBCRERERERNRWDEiIiIiIiaioGJURERERE1FTLNij5OfYOWltDuNvg5xIRERER0eJatkHJjxNXgT+txMpGrfDrEFpbWxH6Wufz//kl3mltRevsUhn0MBgiIiIiIqrO8IzuS8Nd3DoOdA5swovTf/k59g5e7b46/b8Art8A3uqQS15zFW+1zv0/cCMH33qt9/gZX+5+FXu+Unn4T2fwj1wO53Rvc5X1lam+fURERERET4bl2VPy9S3IAK52vzrbS/Fj1znkcjlcP4JiD8p6H3K5HHK5HP4x0AkggOu5HHK56wjoepMX8fbZ6wjMvi6H3I0AgE6c+b8ccmffLgZE0z0m1XtYXsTbZ2e2rxjQ5JSWG/q2joiIiIjoSbEsg5K7N2V0Dvyj5Gbehw0A8M8v8clxIOB9e7YHpZpiilUrWqd7VeSOYjrWO7GfgX+uxMojMj6J/Vx88vpNCOAqrqR/ntuWyB5cRSeAnxXWXmnly53a2/Pj3wF0YuVLOj8AEREREdEytwyDkru4dbwTf7RVhh13I3tw9U9nsOul+eM9imldMt5qbUVr61uQMR18nLyLF6d7WGZ6KAI3ioHOua4XgZdexNvuM0B3D778JwBswKYjwNXu88VxItNBUOdAEL71xe25e1LtfYuBzosrfwd89SN+VPl0P05cBfA7BiVERERE9NRYdkHJz7FPIP/pj9hUftNe2kvy0ts4V5ISpZS+FbiRQ+7Qhupv+NLb2H/kKn78Z/G/GzYHAPwdP/7zZ3zpLwZBwa65AGnDoZn3nUkTm0v/KgY6K9GJv8+ub77iWBkc2QQdW0ZERERE9ERYdgPdf5woJku92sqSZ2EAAAXoSURBVLpn7o9HruM6pgOERg0O/zo0m9IFADjeitJh83v+Y2ZQ/R68+lVxW+YNTv/nj/i70npfWonfTaeAvd1V1tsz/ZrOlxtWU4yIiIiIaMlbdj0lGw7lcO7sufm9H4dW4scxAF/twautrWjd/SV+LinZq5S+peXuyXfw5XR+1Uw6l+byf2dQPlKkONYEs+/7zsy4lJkUsInKBK6f01dwFcqpaURERERET6oFD0pKx1jUvZxUm/GjWNlqXvWqkhQuI9W35I5W3Np8Dm/X1VlRHPcSODL9vjcCuNr96mxgsmFzADh+q2z+krs4330VUEpNIyIiIiJ6gi14+taGQznkDjVufXdPtuKt4zP/m5l7pBNn/u8c3n5ppnqVVkSxAb5cTnWdcylYPuRyPn0b9dLbOJd7e/a/M+Nerr98pfiH9T78Y+DveLX7VYRW5uBbvwkBvIVPYruK40yA2TLHRiqHERERERE9CZZl+lZF78f//RFX/qNk5vQ1K4GZUr8KVbBaS9Kp7p5sxa3NyvOD/FyyDs1l95clBYGLPR4B79vzQqMXu87h+pGZ0sEbsGugE1f/v1vTr/sZX4Zl4E9nsIsTJhIRERHRU2bZBSWKXlqJ36E4n8iPE1fR+fLKuVK/FelbJZWwUAxy1GZOf7Hr3PwJE1UmOuz8f6Uzy38CWSW42HDo3Gzp4Be7gjiDPeiJ/YyfYz3Y8xV7SYiIiIjo6fRkBCUlPQ8/Avjdygbe2q/fhTN/uoo9/i/Lpke8i1CHDBy5PpeCBeDHCeBMn57g4kW83XcG6H612JPDXhIiIiIieko9AUHJz/jy5JdA134EvtqDPcc7sfKluwipTp5YbdB8uWLw0PnVHrw6+5q7CLW+BflPZ/CPsrlONhwqjm3Rtd3+mQpdAVw/y14SIiIiIno6Lbt5SsrdOvkq/v7yP/A2gJV/AvDV77DypQ14O5fDzDD1n2Pv4NXu3+F6zlfbpIQvvY1zN35Ea8dbaJ0ZZH/kur7JFxVNBzWYHliPEFpbQ7VvHxERERHRMrZse0p+nCj2fsiYTp/65y1c+aoTnX+S8dbu8lSrBli/aX4p4bEfa3uPr0PTc6UUx6n41gNY70PuBsrmMyEiIiIiejos06DkLm4dx7zeiruRPbh6ZD/Onc3h+priJIqhr4vPLg5619ML0YmVZalXcxW43sLfB/4xN1li6USNurb5Z3y5u7U4S/yR68jlytK81vuQy13H77pfRWvrO/jyn7pWSkRERES07C3ToKQ418hs+tTXIbx1vBNn3MX/F8sGXwc6dJTy/TpU/HeHDBzZX5zrpKQUcA+CFRW75k3M+P+uFIMTzXEqdxFqfRV7vpqZgV4tPJr+XDd+hz3/YWTcCxERERHR8vUbIYQw8oL//u//xgcffLBQ21OTuydb8cnL/5hXBetp9NFHH+F//ud/mr0ZRERERESGLPuB7kCxZ+RcszeCiIiIiIhqskzTt4iIiIiI6EnBoISIiIiIiJrKcFDywgsv4MGDBwuxLVSHBw8e4IUXXmj2ZhARERERGWY4KNm0aRP++te/MjBZQh48eIC//vWv2LRpU7M3hYiIiIjIMMPVtwDgb3/7G27duoWHDx8uxDaRQS+88AI2bdqE3//+983eFCIiIiIiw2oKSoiIiIiIiBqFA92JiIiIiKipGJQQEREREVFTMSghIiIiIqKmYlBCRERERERNxaCEiIiIiIiaikEJERERERE1FYMSIiIiIiJqKgYlRERERETUVAxKiIiIiIioqRiUEBERERFRUzEoISIiIiKipmJQQkRERERETcWghIiIiIiImopBCRERERERNRWDEiIiIiIiaioGJURERERE1FQMSoiIiIiIqKkYlBARERERUVMxKCEiIiIioqZiUEJERERERE3FoISIiIiIiJqKQQkRERERETUVgxIiIiIiImoqBiVERERERNRUDEqIiIiIiKipGJQQEREREVFTMSghIiIiIqKmYlBCRERERERNxaCEiIiIiIia6v8HdUgUvp0iSKUAAAAASUVORK5CYII=;" vertex="1" parent="1">
          <mxGeometry x="420" y="989.9999999999999" width="565" height="209.16" as="geometry" />
        </mxCell>
        <mxCell id="xqInLOvfpjBzlCC8Navy-93" value="" style="shape=flexArrow;endArrow=classic;html=1;rounded=0;fontSize=14;" edge="1" parent="1">
          <mxGeometry width="50" height="50" relative="1" as="geometry">
            <mxPoint x="660" y="1210" as="sourcePoint" />
            <mxPoint x="660" y="1290" as="targetPoint" />
          </mxGeometry>
        </mxCell>
        <mxCell id="xqInLOvfpjBzlCC8Navy-94" value="按规则拼接授权链接" style="text;html=1;strokeColor=none;fillColor=none;align=center;verticalAlign=middle;whiteSpace=wrap;rounded=0;fontSize=14;" vertex="1" parent="1">
          <mxGeometry x="695" y="1230" width="155" height="40" as="geometry" />
        </mxCell>
        <mxCell id="xqInLOvfpjBzlCC8Navy-95" value="https://www-platform.vf-smart.com/wechat-platform/&lt;b&gt;{appName}/{appType}/{brand}&lt;/b&gt;" style="text;html=1;strokeColor=none;fillColor=none;align=center;verticalAlign=middle;whiteSpace=wrap;rounded=0;fontSize=14;" vertex="1" parent="1">
          <mxGeometry x="450" y="1320" width="540" height="50" as="geometry" />
        </mxCell>
        <mxCell id="xqInLOvfpjBzlCC8Navy-97" value="授权的应用名称" style="rounded=0;whiteSpace=wrap;html=1;fontSize=14;fillColor=none;" vertex="1" parent="1">
          <mxGeometry x="552.5" y="1145" width="75" height="35" as="geometry" />
        </mxCell>
        <mxCell id="xqInLOvfpjBzlCC8Navy-98" value="授权的应用类型" style="rounded=0;whiteSpace=wrap;html=1;fontSize=14;fillColor=none;" vertex="1" parent="1">
          <mxGeometry x="655" y="1145" width="75" height="35" as="geometry" />
        </mxCell>
        <mxCell id="xqInLOvfpjBzlCC8Navy-99" value="授权的应用品牌" style="rounded=0;whiteSpace=wrap;html=1;fontSize=14;fillColor=none;" vertex="1" parent="1">
          <mxGeometry x="760" y="1145" width="75" height="35" as="geometry" />
        </mxCell>
      </root>
    </mxGraphModel>
  </diagram>
</mxfile>
